<svg xmlns="http://www.w3.org/2000/svg" width="33.391" height="33.075" viewBox="0 0 33.391 33.075">
  <g id="Group_327" data-name="Group 327" transform="translate(-4278.611 1237.234)">
    <path id="Path_821" data-name="Path 821" d="M4347.454-1200.859a5.283,5.283,0,0,0-2.865-4.2,9.217,9.217,0,0,0-4.246-.656c-2.352.021-4.7-.005-6.972-.032-1.851-.021-3.766-.037-5.681-.037a1.925,1.925,0,0,0-1.835,1.995v6.86a1.931,1.931,0,0,0,1.819,1.989c1.825.027,3.622.075,5.419.128,2.193.059,4.46.123,6.738.139.191.005.383.005.576.005a8.325,8.325,0,0,0,4.332-.9,5.709,5.709,0,0,0,2.715-5.291Zm-2.95,1.536a1.807,1.807,0,0,1-.662,1.035c-.245.171-.421.171-.437.128s.1-.144.234-.341a1.939,1.939,0,0,0,.336-.928,2.2,2.2,0,0,0-.315-1.387,2.793,2.793,0,0,0-1.339-1.141,8.08,8.08,0,0,0-1.856-.507,13.311,13.311,0,0,0-1.6-.176c-.923-.043-1.51-.011-1.531-.117s.549-.325,1.52-.422a8.778,8.778,0,0,1,1.708.016,7.264,7.264,0,0,1,2.069.507,3.268,3.268,0,0,1,1.648,1.51,2.532,2.532,0,0,1,.225,1.824Z" transform="translate(-35.473 -23.611)" fill="#fff"/>
    <path id="Path_822" data-name="Path 822" d="M4385.323-1233.314a2.272,2.272,0,0,0,1.231.966v1.995a9.233,9.233,0,0,1,1.067.139v-2.15a2.513,2.513,0,0,0,.742-4.4c-1.659-1.478-4.038.832-3.329,2.88a2.483,2.483,0,0,0,.288.571Z" transform="translate(-79.812)" fill="#fff"/>
    <path id="Path_823" data-name="Path 823" d="M4373.066-1157.243l-1.062-.016v-1.536a10.1,10.1,0,0,1-3.019.47v1.024c-.282-.005-.57-.005-.854-.011-.032.571-.042,1.195-.053,1.835-.011,0-.021-.01-.032-.016a5.761,5.761,0,0,1-3.692-2.886l-1.216-.032a6.963,6.963,0,0,0,4.689,3.963.375.375,0,0,0,.106.011.624.624,0,0,0,.144-.021c0,1.094.027,2.2.048,3.163.042,1.862,0,5.707,2.144,6.006,3.27.459,2.79-5.3,2.79-7.548q0-2.2.005-4.406Z" transform="translate(-63.468 -58.896)" fill="#fff"/>
    <path id="Path_824" data-name="Path 824" d="M4287.818-1191.761a.541.541,0,0,0-.229-.053h-1.195a3.732,3.732,0,0,0-.949-1.947.527.527,0,0,0-.752-.011.526.526,0,0,0-.01.752,2.611,2.611,0,0,1,.624,1.205h-1.718a3.717,3.717,0,0,0-.949-1.947.526.526,0,0,0-.752-.011.526.526,0,0,0-.011.752,2.608,2.608,0,0,1,.624,1.205h-1.227a4.88,4.88,0,0,0-1.754-2.576.529.529,0,0,0-.539-.042.538.538,0,0,0-.3.453,30.532,30.532,0,0,0,.064,5.068.536.536,0,0,0,.325.442.561.561,0,0,0,.209.043.512.512,0,0,0,.33-.117,5.622,5.622,0,0,0,1.552-2.2v-.006c.01,0,.016.006.027.006h1.36a2.641,2.641,0,0,1-.672,1.456.536.536,0,0,0,.011.752.519.519,0,0,0,.374.149.539.539,0,0,0,.384-.16,3.768,3.768,0,0,0,.987-2.2h1.728a2.638,2.638,0,0,1-.672,1.456.536.536,0,0,0,.011.752.52.52,0,0,0,.374.149.541.541,0,0,0,.384-.16,3.766,3.766,0,0,0,.987-2.2h1.157a.571.571,0,0,0,.251-.069,1.39,1.39,0,0,0,.438.512,1.99,1.99,0,0,0,1.034.336v-2.763a2.882,2.882,0,0,0-.475.091,1.584,1.584,0,0,0-1.03.88Z" transform="translate(0 -32.096)" fill="#fff"/>
  </g>
</svg>
