<svg xmlns="http://www.w3.org/2000/svg" width="27.369" height="27.811" viewBox="0 0 27.369 27.811">
  <g id="Group_329" data-name="Group 329" transform="translate(-4282.466 661.63)">
    <path id="Path_840" data-name="Path 840" d="M4358.9-634l7.132-6.559a.451.451,0,0,0,.028-.638.449.449,0,0,0-.633-.028l-7.146,6.569c.121.126.242.256.368.391l.251.265Z" transform="translate(-60.071 -16.077)" fill="#fff"/>
    <path id="Path_841" data-name="Path 841" d="M4361.254-635.938a.448.448,0,0,0,.34-.154c.875-1.015,1.806-2,2.774-2.919a.45.45,0,0,0,.014-.638.45.45,0,0,0-.638-.014c-.987.945-1.941,1.951-2.831,2.984a.45.45,0,0,0,.046.633.457.457,0,0,0,.293.107Z" transform="translate(-62.069 -17.306)" fill="#fff"/>
    <path id="Path_842" data-name="Path 842" d="M4366.609-656.758a.45.45,0,0,0,.307-.121l4.208-3.975a.445.445,0,0,0,.019-.633.444.444,0,0,0-.633-.018l-4.208,3.975a.444.444,0,0,0-.019.633.444.444,0,0,0,.326.14Z" transform="translate(-66.311 0)" fill="#fff"/>
    <path id="Path_843" data-name="Path 843" d="M4392.432-646a.453.453,0,0,0-.633-.046,40.871,40.871,0,0,0-4.842,4.995.447.447,0,0,0,.065.633.445.445,0,0,0,.284.1.454.454,0,0,0,.35-.163,40.087,40.087,0,0,1,4.734-4.883.455.455,0,0,0,.042-.638Z" transform="translate(-82.708 -12.263)" fill="#fff"/>
    <path id="Path_844" data-name="Path 844" d="M4383.688-632.44l-6.7,6.95a.454.454,0,0,0,.01.638.45.45,0,0,0,.312.126.451.451,0,0,0,.326-.14l6.7-6.95a.454.454,0,0,0-.009-.638.458.458,0,0,0-.638.014Z" transform="translate(-74.791 -23.02)" fill="#fff"/>
    <path id="Path_845" data-name="Path 845" d="M4391.814-610.25a21.571,21.571,0,0,0-2.76,3.063.447.447,0,0,0,.093.628.434.434,0,0,0,.266.089.444.444,0,0,0,.363-.182,21.093,21.093,0,0,1,2.645-2.933.449.449,0,0,0,.028-.633.441.441,0,0,0-.633-.033Z" transform="translate(-84.379 -40.615)" fill="#fff"/>
    <path id="Path_846" data-name="Path 846" d="M4322.627-627.763c2.169,3.161,9.068,8.845,9.836,9.394,1.084.773,1.606.773,1.857.633a.312.312,0,0,0,.177-.2c.093-.424-.531-1.262-.833-1.662-.065-.084-.121-.163-.168-.228a29.27,29.27,0,0,0-3.408-3.762c-.544-.54-1.112-1.094-1.639-1.653a47.566,47.566,0,0,0-3.742-3.5c-.1-.084-.2-.177-.317-.279-.708-.628-1.941-1.718-2.868-1.718a.976.976,0,0,0-.414.088c-.1.047-.112.093-.117.121-.121.507.9,1.82,1.29,2.313.148.182.265.34.344.447Z" transform="translate(-30.518 -24.48)" fill="#fff"/>
    <path id="Path_847" data-name="Path 847" d="M4305.126-631.392a69.164,69.164,0,0,0,5.87,6.205c3.184,2.974,6.024,4.651,8.449,4.976a1.4,1.4,0,0,0,.712-.033.464.464,0,0,1,.084-.126c.117-.582-1.117-2.393-1.857-3.142a.464.464,0,0,1-.084-.126,1.857,1.857,0,0,1-.223.028,3.816,3.816,0,0,1-2.085-.875c-.461-.331-7.686-6.163-10.056-9.618-.069-.1-.177-.237-.307-.4-.847-1.085-1.662-2.216-1.457-3.072a1.023,1.023,0,0,1,.061-.168c-.824-.8-2.556-1.816-3.166-1.6-.051.018-.187.065-.205.447-.126,2.318,2.3,5.177,3.906,7.071Zm-2.23-4.613c-.037.075-.237.079-.494-.084a1.614,1.614,0,0,1-.651-.945,1.634,1.634,0,0,1,.107-1.145c.145-.265.322-.358.391-.312.149.107-.046.651.135,1.289.158.647.591,1.029.512,1.2Z" transform="translate(-14.571 -17.634)" fill="#fff"/>
    <path id="Path_848" data-name="Path 848" d="M4305.223-621.047a3.358,3.358,0,0,1-.465-.033c-2.616-.349-5.624-2.1-8.942-5.209a70.315,70.315,0,0,1-5.95-6.284L4289.5-633c-1.8-2.123-4.26-5.028-4.115-7.7a1.947,1.947,0,0,1,.079-.451c-.959-.428-2.37-.624-2.84-.242-.065.051-.26.214-.1.8.731,2.635,2.5,5.074,4.254,7.346a73.412,73.412,0,0,0,6.164,6.969,46.872,46.872,0,0,0,5.777,5.1l.116.084c1.467,1.043,4.9,3.487,6.717,3.1a.775.775,0,0,0,.586-.428,4.061,4.061,0,0,0-.344-2.709,2.118,2.118,0,0,1-.577.079Zm-2.635,1.252c-1.541-.6-2.486-1.592-2.37-1.718.121-.149,1.178.554,2.607,1.108s2.677.768,2.663.959c0,.172-1.364.261-2.9-.349Z" transform="translate(0 -15.871)" fill="#fff"/>
  </g>
</svg>
