<svg xmlns="http://www.w3.org/2000/svg" width="30.319" height="20.205" viewBox="0 0 30.319 20.205">
  <path id="noun-level-4380898" d="M365.489,86.615V91.13c0,.223-.307.4-.687.4H335.857c-.379,0-.687-.181-.687-.4V86.615c0-.223.307-.4.687-.4H364.8c.379,0,.687.181.687.4ZM364.8,78.77H335.857c-.379,0-.687.181-.687.4v4.515c0,.223.307.4.687.4H364.8c.379,0,.687-.181.687-.4V79.174c0-.223-.307-.4-.687-.4Zm0,14.882H335.857c-.379,0-.687.181-.687.4v4.515c0,.223.307.4.687.4H364.8c.379,0,.687-.181.687-.4V94.056c0-.223-.307-.4-.687-.4Z" transform="translate(-335.17 -78.77)" fill="#f09455"/>
</svg>
