<svg xmlns="http://www.w3.org/2000/svg" width="30.073" height="20.282" viewBox="0 0 30.073 20.282">
  <g id="noun-gold-2738950" transform="translate(-179.963 -429.058)">
    <path id="Path_849" data-name="Path 849" d="M312.426,429.15l-14.826,9.8,1.348.4,1.036.306c.011.005.016.005.027.011l4.43,1.3.655.193,10.24-7.695.016-.016,2.594-1.949.9-.671.2-.156-6.191-1.595a.526.526,0,0,0-.43.075Z" transform="translate(-113.426)" fill="#f09455"/>
    <path id="Path_850" data-name="Path 850" d="M191.777,739.69l-.054-.763-.059-.768-.145-1.96-.161-2.073-.091-1.246-4.988-1.466c-.005,0-.016-.005-.022-.005l-1.756-.515-.392-.118-.677-.2-3.388,5.477a.521.521,0,0,0-.043.478.531.531,0,0,0,.354.322l11.454,3.211-.027-.36Z" transform="translate(0 -290.726)" fill="#f09455"/>
    <path id="Path_851" data-name="Path 851" d="M543.3,495.909a.545.545,0,0,0-.15-.408l-3.334-3.431-.483.365-.381.285-3.114,2.341L525.6,502.756l.252,3.4.188,2.47.075,1.02v.032l.016.252L543.1,496.29a.526.526,0,0,0,.2-.381Z" transform="translate(-333.269 -60.756)" fill="#f09455"/>
  </g>
</svg>
