<svg xmlns="http://www.w3.org/2000/svg" width="28.935" height="29.658" viewBox="0 0 28.935 29.658">
  <g id="Group_328" data-name="Group 328" transform="translate(-4286.901 946.007)">
    <path id="Path_825" data-name="Path 825" d="M4362.234-946a.45.45,0,0,0-.449.449V-916.8a.45.45,0,0,0,.449.449.45.45,0,0,0,.449-.449v-28.759a.452.452,0,0,0-.449-.449Z" transform="translate(-60.303 0)" fill="#fff"/>
    <path id="Path_826" data-name="Path 826" d="M4292.778-866.434a.451.451,0,0,0-.575-.269l-3.785,1.371a.449.449,0,0,0-.27.575.449.449,0,0,0,.422.3.448.448,0,0,0,.153-.028l3.785-1.371a.443.443,0,0,0,.269-.575Z" transform="translate(-0.984 -63.842)" fill="#fff"/>
    <path id="Path_827" data-name="Path 827" d="M4297.894-849.685a.447.447,0,0,0-.63-.042l-3.16,2.757a.447.447,0,0,0-.042.63.445.445,0,0,0,.338.153.444.444,0,0,0,.292-.111l3.16-2.757a.447.447,0,0,0,.042-.63Z" transform="translate(-5.678 -77.444)" fill="#fff"/>
    <path id="Path_828" data-name="Path 828" d="M4310.848-835.106l-2.307,2.493a.447.447,0,0,0,.023.63.455.455,0,0,0,.306.12.441.441,0,0,0,.329-.144l2.307-2.493a.447.447,0,0,0-.023-.63.452.452,0,0,0-.635.023Z" transform="translate(-17.33 -89.193)" fill="#fff"/>
    <path id="Path_829" data-name="Path 829" d="M4328.7-826.1a.447.447,0,0,0-.6.2l-1.417,2.835a.447.447,0,0,0,.2.6.442.442,0,0,0,.2.046.447.447,0,0,0,.4-.246l1.417-2.835A.441.441,0,0,0,4328.7-826.1Z" transform="translate(-31.995 -96.519)" fill="#fff"/>
    <path id="Path_830" data-name="Path 830" d="M4346.195-816.131a.453.453,0,0,0-.477.417l-.213,3.039a.446.446,0,0,0,.417.477h.033a.446.446,0,0,0,.445-.417l.213-3.039a.447.447,0,0,0-.417-.477Z" transform="translate(-47.192 -104.587)" fill="#fff"/>
    <path id="Path_831" data-name="Path 831" d="M4287.37-886l4.007-.185a.447.447,0,0,0,.427-.468.449.449,0,0,0-.468-.426l-4.008.185a.445.445,0,0,0-.426.468.444.444,0,0,0,.444.426Z" transform="translate(0 -47.451)" fill="#fff"/>
    <path id="Path_832" data-name="Path 832" d="M4296.1-910.739l3.327,1.89a.423.423,0,0,0,.223.06.449.449,0,0,0,.389-.227.452.452,0,0,0-.167-.612l-3.327-1.89a.453.453,0,0,0-.611.167.444.444,0,0,0,.167.612Z" transform="translate(-7.224 -27.728)" fill="#fff"/>
    <path id="Path_833" data-name="Path 833" d="M4317.211-928.554a.444.444,0,0,0,.338.153.454.454,0,0,0,.3-.111.447.447,0,0,0,.042-.63l-2.4-2.729a.447.447,0,0,0-.63-.042.447.447,0,0,0-.042.63Z" transform="translate(-22.386 -11.261)" fill="#fff"/>
    <path id="Path_834" data-name="Path 834" d="M4338.938-939.467a.45.45,0,0,0,.4.25.414.414,0,0,0,.194-.046.448.448,0,0,0,.208-.6L4338.215-943a.453.453,0,0,0-.6-.2.448.448,0,0,0-.208.6Z" transform="translate(-40.634 -2.22)" fill="#fff"/>
    <path id="Path_835" data-name="Path 835" d="M4392.544-939.532l1.524.032.033,2.094a.448.448,0,0,0,.449.44h.009a.449.449,0,0,0,.44-.454l-.033-2.062,1.357.028h.01a.451.451,0,0,0,.449-.44.453.453,0,0,0-.44-.459l-1.39-.028-.028-1.7a.448.448,0,0,0-.449-.44h-.009a.449.449,0,0,0-.44.454l.023,1.668-1.492-.028h-.009a.448.448,0,0,0-.449.44.453.453,0,0,0,.445.454Z" transform="translate(-84.714 -2.808)" fill="#fff"/>
    <path id="Path_836" data-name="Path 836" d="M4419.244-897.149l-.969-.037.014-1.1a.449.449,0,0,0-.44-.454h0a.448.448,0,0,0-.449.44l-.014,1.075-1.075-.037a.44.44,0,0,0-.463.431.449.449,0,0,0,.431.463l1.094.042-.014,1.223a.448.448,0,0,0,.44.454h0a.448.448,0,0,0,.449-.44l.014-1.2.945.033h.019a.442.442,0,0,0,.445-.431.44.44,0,0,0-.426-.464Z" transform="translate(-103.834 -38.065)" fill="#fff"/>
    <path id="Path_837" data-name="Path 837" d="M4396.787-826.584l-1.27.134-.088-1.566a.435.435,0,0,0-.472-.422.446.446,0,0,0-.421.473l.088,1.612-2.2.232a.448.448,0,0,0-.4.491.443.443,0,0,0,.445.4.158.158,0,0,0,.046,0l2.154-.227.079,1.422a.446.446,0,0,0,.444.422h.023a.446.446,0,0,0,.421-.473l-.083-1.464,1.312-.139a.444.444,0,0,0,.4-.491.419.419,0,0,0-.477-.4Z" transform="translate(-84.653 -94.675)" fill="#fff"/>
    <path id="Path_838" data-name="Path 838" d="M4323.781-899.116v-18.3a9.925,9.925,0,0,0-5.439,2.595c-5.4,5.226-1.988,14.516,5.439,15.706Z" transform="translate(-23.193 -23.023)" fill="#fff"/>
    <path id="Path_839" data-name="Path 839" d="M4379.213-908.614a9.013,9.013,0,0,0-8.242-8.97v18.417C4376.332-899.631,4379.213-903.8,4379.213-908.614Zm-3.1,3.818a11.673,11.673,0,0,1,.468-1.668,5.934,5.934,0,0,0,.153-.839,7.875,7.875,0,0,0,.079-.973,9.752,9.752,0,0,0-.231-2.219,9.586,9.586,0,0,0-.778-2.089,8.863,8.863,0,0,0-.505-.839,6.485,6.485,0,0,0-.509-.686c-.677-.8-1.218-1.2-1.158-1.288.032-.06.681.208,1.487.982a5.276,5.276,0,0,1,.606.681,7.648,7.648,0,0,1,.593.866,8.783,8.783,0,0,1,.885,2.229,8.82,8.82,0,0,1,.2,2.391,6.772,6.772,0,0,1-.148,1.038,5.318,5.318,0,0,1-.245.88,3.166,3.166,0,0,1-.895,1.534Z" transform="translate(-67.7 -22.889)" fill="#fff"/>
  </g>
</svg>
