<svg xmlns="http://www.w3.org/2000/svg" xmlns:xlink="http://www.w3.org/1999/xlink" width="229.627" height="260.872" viewBox="0 0 229.627 260.872">
  <defs>
    <linearGradient id="linear-gradient" x1="-397.438" y1="0.5" x2="-396.438" y2="0.5" gradientUnits="objectBoundingBox">
      <stop offset="0" stop-color="#5b58a3"/>
      <stop offset="0.439" stop-color="#5e59a2"/>
      <stop offset="0.848" stop-color="#695ca2"/>
      <stop offset="0.994" stop-color="#705ea2"/>
    </linearGradient>
    <linearGradient id="linear-gradient-2" x1="-975.128" y1="0.5" x2="-974.128" y2="0.5" xlink:href="#linear-gradient"/>
    <radialGradient id="radial-gradient" cx="0.146" cy="-0.245" r="0.714" gradientUnits="objectBoundingBox">
      <stop offset="0" stop-color="#ffd5bd"/>
      <stop offset="0.103" stop-color="#f8d0bf"/>
      <stop offset="0.253" stop-color="#e4c2c6"/>
      <stop offset="0.43" stop-color="#c5abd1"/>
      <stop offset="0.627" stop-color="#998ce1"/>
      <stop offset="0.754" stop-color="#7a75ed"/>
      <stop offset="0.975" stop-color="#7a82ed"/>
    </radialGradient>
    <linearGradient id="linear-gradient-3" x1="-1276.382" y1="0.5" x2="-1275.382" y2="0.5" gradientUnits="objectBoundingBox">
      <stop offset="0" stop-color="#b3a6db"/>
      <stop offset="0.413" stop-color="#a585bd"/>
      <stop offset="0.766" stop-color="#9d70aa"/>
      <stop offset="1" stop-color="#9a69a4"/>
    </linearGradient>
    <linearGradient id="linear-gradient-4" x1="-1661.565" y1="0.5" x2="-1660.565" y2="0.5" xlink:href="#linear-gradient-3"/>
    <linearGradient id="linear-gradient-5" x1="-2436.229" y1="0.5" x2="-2435.229" y2="0.5" xlink:href="#linear-gradient-3"/>
    <linearGradient id="linear-gradient-6" x1="-1665.362" y1="0.5" x2="-1664.362" y2="0.5" gradientUnits="objectBoundingBox">
      <stop offset="0" stop-color="#fff"/>
      <stop offset="1" stop-color="#623964"/>
    </linearGradient>
    <linearGradient id="linear-gradient-7" y1="0.5" x2="1" y2="0.5" gradientUnits="objectBoundingBox">
      <stop offset="0" stop-color="#cc87cf"/>
      <stop offset="0.086" stop-color="#c680ca"/>
      <stop offset="0.687" stop-color="#a659ae"/>
      <stop offset="1" stop-color="#9a4ba4"/>
    </linearGradient>
    <linearGradient id="linear-gradient-8" x1="0" y1="0.5" x2="1" y2="0.5" xlink:href="#linear-gradient"/>
    <radialGradient id="radial-gradient-2" cx="0.91" cy="0.09" r="0.714" xlink:href="#radial-gradient"/>
    <linearGradient id="linear-gradient-10" x1="0" y1="0.5" x2="1" y2="0.5" xlink:href="#linear-gradient-3"/>
    <linearGradient id="linear-gradient-11" x1="0" y1="0.5" x2="1" y2="0.5" xlink:href="#linear-gradient-3"/>
    <linearGradient id="linear-gradient-12" x1="0" y1="0.5" x2="1" y2="0.5" xlink:href="#linear-gradient-3"/>
    <linearGradient id="linear-gradient-13" x1="0" y1="0.5" x2="1" y2="0.5" xlink:href="#linear-gradient-6"/>
    <radialGradient id="radial-gradient-3" cx="0.584" cy="0.094" r="0.884" gradientUnits="objectBoundingBox">
      <stop offset="0.006" stop-color="#fc0"/>
      <stop offset="0.223" stop-color="#fec802"/>
      <stop offset="0.408" stop-color="#fbbe08"/>
      <stop offset="0.581" stop-color="#f7ac12"/>
      <stop offset="0.748" stop-color="#f19321"/>
      <stop offset="0.907" stop-color="#ea7434"/>
      <stop offset="1" stop-color="#e55e42"/>
    </radialGradient>
    <radialGradient id="radial-gradient-4" cx="0.5" cy="0.5" r="0.425" gradientUnits="objectBoundingBox">
      <stop offset="0.006" stop-color="#662d89"/>
      <stop offset="0.175" stop-color="#4d2268"/>
      <stop offset="0.437" stop-color="#2c133b"/>
      <stop offset="0.671" stop-color="#14081a"/>
      <stop offset="0.867" stop-color="#050207"/>
      <stop offset="1"/>
    </radialGradient>
    <radialGradient id="radial-gradient-5" cx="0.642" cy="0.641" r="1.354" gradientUnits="objectBoundingBox">
      <stop offset="0" stop-color="#b1b5bd"/>
      <stop offset="0.137" stop-color="#abaebd"/>
      <stop offset="0.336" stop-color="#9b9abe"/>
      <stop offset="0.57" stop-color="#807bc0"/>
      <stop offset="0.754" stop-color="#685ec2"/>
      <stop offset="0.975" stop-color="#7a75d8"/>
    </radialGradient>
    <linearGradient id="linear-gradient-15" y1="0.5" x2="1" y2="0.5" gradientUnits="objectBoundingBox">
      <stop offset="0" stop-color="#9a69a4"/>
      <stop offset="0.134" stop-color="#a274ab"/>
      <stop offset="0.375" stop-color="#b794be"/>
      <stop offset="0.694" stop-color="#d9c7dd"/>
      <stop offset="1" stop-color="#fff"/>
    </linearGradient>
    <linearGradient id="linear-gradient-16" y1="0.5" x2="1" y2="0.5" gradientUnits="objectBoundingBox">
      <stop offset="0" stop-color="#860057"/>
      <stop offset="0.026" stop-color="#8b0555"/>
      <stop offset="0.186" stop-color="#a9214a"/>
      <stop offset="0.355" stop-color="#c03742"/>
      <stop offset="0.536" stop-color="#d1473c"/>
      <stop offset="0.736" stop-color="#da5139"/>
      <stop offset="0.994" stop-color="#de5438"/>
    </linearGradient>
    <linearGradient id="linear-gradient-18" x1="-0.157" y1="0.5" x2="0.843" y2="0.5" gradientUnits="objectBoundingBox">
      <stop offset="0.025" stop-color="#7a82ed"/>
      <stop offset="0.206" stop-color="#7a75ed"/>
      <stop offset="0.986" stop-color="#fcd3bd"/>
      <stop offset="1" stop-color="#ffd5bd"/>
    </linearGradient>
    <radialGradient id="radial-gradient-6" cx="0.642" cy="-0.049" r="1.283" xlink:href="#radial-gradient"/>
    <linearGradient id="linear-gradient-19" x1="0.623" y1="0.565" x2="0.213" y2="0.186" xlink:href="#linear-gradient-15"/>
    <linearGradient id="linear-gradient-20" x1="0.5" y1="0.929" x2="0.5" y2="-0.197" gradientUnits="objectBoundingBox">
      <stop offset="0" stop-color="#fff"/>
      <stop offset="1"/>
    </linearGradient>
    <radialGradient id="radial-gradient-7" cx="0.5" cy="0.5" r="0.543" gradientUnits="objectBoundingBox">
      <stop offset="0.006" stop-color="#60dbff"/>
      <stop offset="0.182" stop-color="#56d4ff"/>
      <stop offset="0.479" stop-color="#3cc3ff"/>
      <stop offset="0.857" stop-color="#11a8ff"/>
      <stop offset="1" stop-color="#009dff"/>
    </radialGradient>
    <linearGradient id="linear-gradient-21" x1="0.5" y1="1.038" x2="0.5" y2="0.611" gradientUnits="objectBoundingBox">
      <stop offset="0" stop-color="#e7e3f4"/>
      <stop offset="0.073" stop-color="#dfd6eb"/>
      <stop offset="0.372" stop-color="#c1a7cc"/>
      <stop offset="0.637" stop-color="#ab85b6"/>
      <stop offset="0.856" stop-color="#9e70a8"/>
      <stop offset="1" stop-color="#9a69a4"/>
    </linearGradient>
    <linearGradient id="linear-gradient-22" x1="0.5" y1="0" x2="0.5" y2="1" xlink:href="#linear-gradient-18"/>
    <linearGradient id="linear-gradient-23" x1="0.5" y1="0" x2="0.5" y2="1" xlink:href="#linear-gradient-18"/>
    <radialGradient id="radial-gradient-8" cx="0.642" cy="0.672" r="2.311" xlink:href="#radial-gradient-5"/>
    <radialGradient id="radial-gradient-9" cx="0.768" cy="0.536" r="1.554" xlink:href="#radial-gradient-5"/>
    <linearGradient id="linear-gradient-30" x1="0" y1="0.5" x2="1" y2="0.5" xlink:href="#linear-gradient-18"/>
    <radialGradient id="radial-gradient-10" cx="1.223" cy="0.367" r="1.528" xlink:href="#radial-gradient"/>
    <linearGradient id="linear-gradient-31" y1="0.5" x2="1" y2="0.5" gradientUnits="objectBoundingBox">
      <stop offset="0" stop-color="#623964"/>
      <stop offset="1" stop-color="#ffc209"/>
    </linearGradient>
    <radialGradient id="radial-gradient-11" cx="0.5" cy="0.5" r="0.264" gradientUnits="objectBoundingBox">
      <stop offset="0.006" stop-color="#f4ff09"/>
      <stop offset="0.066" stop-color="#dee808"/>
      <stop offset="0.267" stop-color="#9ba205"/>
      <stop offset="0.457" stop-color="#646803"/>
      <stop offset="0.631" stop-color="#393b02"/>
      <stop offset="0.785" stop-color="#191b00"/>
      <stop offset="0.913" stop-color="#060700"/>
      <stop offset="1"/>
    </radialGradient>
    <radialGradient id="radial-gradient-12" cx="0.584" cy="0.094" r="0.741" xlink:href="#linear-gradient-6"/>
    <radialGradient id="radial-gradient-13" cx="0.584" cy="0.094" r="0.768" xlink:href="#linear-gradient-6"/>
    <linearGradient id="linear-gradient-32" x1="0" y1="0.185" x2="1" y2="0.185" xlink:href="#linear-gradient"/>
    <radialGradient id="radial-gradient-14" cx="0.63" cy="-0.31" r="2.042" xlink:href="#radial-gradient"/>
    <linearGradient id="linear-gradient-35" x1="0.415" y1="0.967" x2="0.584" y2="0.307" xlink:href="#linear-gradient-31"/>
    <linearGradient id="linear-gradient-36" x1="0.885" y1="0.419" x2="0.147" y2="0.518" xlink:href="#linear-gradient-15"/>
    <radialGradient id="radial-gradient-15" cx="0.5" r="0.5" xlink:href="#radial-gradient-11"/>
    <radialGradient id="radial-gradient-16" cx="0.5" cy="0.5" r="0.5" gradientUnits="objectBoundingBox">
      <stop offset="0.006" stop-color="lime"/>
      <stop offset="1"/>
    </radialGradient>
    <radialGradient id="radial-gradient-18" cx="0.407" cy="0.347" r="0.636" gradientUnits="objectBoundingBox">
      <stop offset="0" stop-color="#abffd3"/>
      <stop offset="0.387" stop-color="#31f58d"/>
      <stop offset="0.447" stop-color="#2ee989"/>
      <stop offset="0.555" stop-color="#26cb81"/>
      <stop offset="0.696" stop-color="#1a9b73"/>
      <stop offset="0.865" stop-color="#095861"/>
      <stop offset="0.951" stop-color="#003457"/>
    </radialGradient>
    <radialGradient id="radial-gradient-19" cx="0.129" cy="0.316" r="1.144" gradientUnits="objectBoundingBox">
      <stop offset="0" stop-color="#97ff11"/>
      <stop offset="1"/>
    </radialGradient>
    <radialGradient id="radial-gradient-20" cx="0.5" cy="0.5" r="0.511" gradientUnits="objectBoundingBox">
      <stop offset="0.885"/>
      <stop offset="0.9" stop-color="#000501"/>
      <stop offset="0.918" stop-color="#031606"/>
      <stop offset="0.94" stop-color="#06310f"/>
      <stop offset="0.963" stop-color="#0c581b"/>
      <stop offset="0.987" stop-color="#13882a"/>
      <stop offset="1" stop-color="#17a533"/>
    </radialGradient>
    <linearGradient id="linear-gradient-37" x1="0.504" y1="1.464" x2="0.501" y2="0.63" gradientUnits="objectBoundingBox">
      <stop offset="0.017" stop-color="#59ddf5"/>
      <stop offset="0.09" stop-color="#4dcfee"/>
      <stop offset="0.351" stop-color="#27a2d9"/>
      <stop offset="0.417" stop-color="#218bba"/>
      <stop offset="0.574" stop-color="#155a79"/>
      <stop offset="0.716" stop-color="#0c3344"/>
      <stop offset="0.839" stop-color="#05171f"/>
      <stop offset="0.938" stop-color="#010608"/>
      <stop offset="1"/>
    </linearGradient>
    <radialGradient id="radial-gradient-21" cx="0.104" cy="0.337" r="0.894" gradientUnits="objectBoundingBox">
      <stop offset="0.017" stop-color="#2bae73"/>
      <stop offset="0.246" stop-color="#1d784f"/>
      <stop offset="0.496" stop-color="#11442d"/>
      <stop offset="0.714" stop-color="#071f14"/>
      <stop offset="0.89" stop-color="#020805"/>
      <stop offset="1"/>
    </radialGradient>
    <radialGradient id="radial-gradient-22" cx="0.5" cy="0.5" r="0.573" xlink:href="#radial-gradient-21"/>
    <radialGradient id="radial-gradient-23" cx="0.5" cy="0.5" r="0.472" gradientUnits="objectBoundingBox">
      <stop offset="0.011" stop-color="#27a2d9"/>
      <stop offset="1" stop-color="#00a6e7"/>
    </radialGradient>
    <radialGradient id="radial-gradient-24" cx="0.5" cy="0.5" r="0.726" xlink:href="#radial-gradient-23"/>
    <radialGradient id="radial-gradient-25" cx="0.5" cy="0.5" r="0.594" xlink:href="#radial-gradient-23"/>
    <radialGradient id="radial-gradient-26" cx="0.5" cy="0.5" r="0.682" xlink:href="#radial-gradient-23"/>
    <radialGradient id="radial-gradient-27" cx="0.5" cy="0.5" r="0.569" xlink:href="#radial-gradient-23"/>
    <radialGradient id="radial-gradient-28" cx="0.5" cy="0.5" r="0.579" xlink:href="#radial-gradient-23"/>
    <radialGradient id="radial-gradient-29" cx="0.447" cy="0.475" r="0.579" gradientUnits="objectBoundingBox">
      <stop offset="0" stop-color="#092708"/>
      <stop offset="0.349" stop-color="#092709"/>
      <stop offset="0.475" stop-color="#0b2a10"/>
      <stop offset="0.564" stop-color="#0e2f1c"/>
      <stop offset="0.637" stop-color="#13362d"/>
      <stop offset="0.699" stop-color="#194043"/>
      <stop offset="0.754" stop-color="#214b5e"/>
      <stop offset="0.804" stop-color="#2a597f"/>
      <stop offset="0.849" stop-color="#3469a4"/>
      <stop offset="0.89" stop-color="#3f7acd"/>
      <stop offset="0.9" stop-color="#437fd9"/>
      <stop offset="1" stop-color="#00ab22"/>
    </radialGradient>
    <linearGradient id="linear-gradient-38" x1="203.354" y1="-211.317" x2="204.828" y2="-211.317" xlink:href="#radial-gradient-21"/>
    <radialGradient id="radial-gradient-30" cx="0.453" cy="0.551" r="0.666" xlink:href="#radial-gradient-29"/>
    <linearGradient id="linear-gradient-39" x1="-176.689" y1="55.046" x2="-175.469" y2="55.046" xlink:href="#radial-gradient-21"/>
    <radialGradient id="radial-gradient-31" cx="0.446" cy="0.521" r="0.583" xlink:href="#radial-gradient-29"/>
    <linearGradient id="linear-gradient-40" x1="-597.191" y1="32.106" x2="-595.685" y2="32.106" xlink:href="#radial-gradient-21"/>
    <radialGradient id="radial-gradient-32" cx="0.461" cy="0.566" r="0.701" xlink:href="#radial-gradient-29"/>
    <linearGradient id="linear-gradient-41" x1="-246.73" y1="128.25" x2="-245.601" y2="128.25" xlink:href="#radial-gradient-21"/>
  </defs>
  <g id="Group_309" data-name="Group 309" transform="translate(-86.872 -208.477)">
    <g id="Group_301" data-name="Group 301" transform="matrix(0.883, 0.469, -0.469, 0.883, 275.147, 194.597)">
      <g id="Group_296" data-name="Group 296" transform="translate(0 37.047)">
        <path id="Path_593" data-name="Path 593" d="M408.147,257.538s8.086,4.7,14.178,4.828l.592,1.2s-10.065-.808-16.282-6.236Z" transform="translate(-401.707 -257.334)" fill-rule="evenodd" fill="url(#linear-gradient)"/>
        <path id="Path_594" data-name="Path 594" d="M409.306,305.536l1.173-2.008s.312-19.692,5.093-33.386l-1.53-1.215S407.332,294.386,409.306,305.536Z" transform="translate(-402.502 -261.329)" fill-rule="evenodd" fill="url(#linear-gradient-2)"/>
        <path id="Path_595" data-name="Path 595" d="M420.329,263.57a73.192,73.192,0,0,1-16.282-6.236A15.039,15.039,0,0,0,400,259.7s-3.256,26.939,2.763,41.839h3.158s.2-19.539,5.648-35.721a46.746,46.746,0,0,0,8.759,3.453Z" transform="translate(-399.118 -257.334)" fill-rule="evenodd" fill="url(#radial-gradient)"/>
        <path id="Path_596" data-name="Path 596" d="M402.577,289.849c3.663-.53,2.344,7.225.457,7.132S397.164,290.633,402.577,289.849Z" transform="translate(-399.367 -268.529)" fill-rule="evenodd" opacity="0.5" fill="url(#linear-gradient-3)" style="mix-blend-mode: multiply;isolation: isolate"/>
        <path id="Path_597" data-name="Path 597" d="M403.383,304.954c1.71,3.881-1.886,7.477-1.886,7.477a58.939,58.939,0,0,1-1.535-9.056S402.053,301.939,403.383,304.954Z" transform="translate(-399.407 -273.081)" fill-rule="evenodd" opacity="0.5" fill="url(#linear-gradient-4)" style="mix-blend-mode: multiply;isolation: isolate"/>
        <path id="Path_598" data-name="Path 598" d="M406.744,303.112c1.045.087,2.9,2.9-.927,1.275C404.978,304.031,405.83,303.036,406.744,303.112Z" transform="translate(-401.307 -273.107)" fill-rule="evenodd" opacity="0.5" fill="url(#linear-gradient-5)" style="mix-blend-mode: multiply;isolation: isolate"/>
        <path id="Path_599" data-name="Path 599" d="M402.988,258.04l-2.463,2.4s-.969,12.105-1.406,17.335a167.122,167.122,0,0,1,.88-17.828A25.848,25.848,0,0,1,402.988,258.04Z" transform="translate(-399.116 -257.577)" fill-rule="evenodd" opacity="0.91" fill="url(#linear-gradient-6)" style="mix-blend-mode: screen;isolation: isolate"/>
        <path id="Path_600" data-name="Path 600" d="M423.253,264.006h-1.6s-.116,2.669,2.573,6.253l5.748,1.919-2.472-7.512A19.548,19.548,0,0,1,423.253,264.006Z" transform="translate(-406.88 -259.633)" fill-rule="evenodd" opacity="0.71" fill="url(#linear-gradient-7)" style="mix-blend-mode: multiply;isolation: isolate"/>
      </g>
      <g id="Group_297" data-name="Group 297" transform="translate(43.208 37.047)">
        <path id="Path_601" data-name="Path 601" d="M482.39,257.538s-8.086,4.7-14.178,4.828l-.593,1.2s10.065-.808,16.282-6.236Z" transform="translate(-465.929 -257.334)" fill-rule="evenodd" fill="url(#linear-gradient-8)"/>
        <path id="Path_602" data-name="Path 602" d="M486.306,305.536l-1.173-2.008s-.312-19.692-5.093-33.386l1.53-1.215S488.28,294.386,486.306,305.536Z" transform="translate(-470.209 -261.329)" fill-rule="evenodd" fill="url(#linear-gradient-8)"/>
        <path id="Path_603" data-name="Path 603" d="M467.619,263.57a73.192,73.192,0,0,0,16.282-6.236,15.04,15.04,0,0,1,4.046,2.369s3.256,26.939-2.763,41.839h-3.158s-.2-19.539-5.648-35.721a46.746,46.746,0,0,1-8.759,3.453Z" transform="translate(-465.929 -257.334)" fill-rule="evenodd" fill="url(#radial-gradient-2)"/>
        <path id="Path_604" data-name="Path 604" d="M494.929,285.185c-3.682.368-2.894,6.226-1.007,6.133S496.817,285,494.929,285.185Z" transform="translate(-474.446 -266.929)" fill-rule="evenodd" opacity="0.5" fill="url(#linear-gradient-10)" style="mix-blend-mode: multiply;isolation: isolate"/>
        <path id="Path_605" data-name="Path 605" d="M493.674,304.954c-1.71,3.881,1.886,7.477,1.886,7.477a58.926,58.926,0,0,0,1.535-9.056S495,301.939,493.674,304.954Z" transform="translate(-474.748 -273.081)" fill-rule="evenodd" opacity="0.5" fill="url(#linear-gradient-11)" style="mix-blend-mode: multiply;isolation: isolate"/>
        <path id="Path_606" data-name="Path 606" d="M489.718,302.251c-1.046.086-.911,2.907,0,2.907S490.631,302.176,489.718,302.251Z" transform="translate(-473.29 -272.811)" fill-rule="evenodd" opacity="0.5" fill="url(#linear-gradient-12)" style="mix-blend-mode: multiply;isolation: isolate"/>
        <path id="Path_607" data-name="Path 607" d="M494.073,258.04l2.463,2.4s.969,12.105,1.406,17.335a167.141,167.141,0,0,0-.88-17.828A25.845,25.845,0,0,0,494.073,258.04Z" transform="translate(-475.044 -257.577)" fill-rule="evenodd" opacity="0.91" fill="url(#linear-gradient-13)" style="mix-blend-mode: screen;isolation: isolate"/>
        <path id="Path_608" data-name="Path 608" d="M471.569,264.006l1.279.016a14.52,14.52,0,0,1-1.468,5.94L465.04,272.5l1.69-6.633Z" transform="translate(-465.04 -259.633)" fill-rule="evenodd" opacity="0.71" fill="url(#linear-gradient-7)" style="mix-blend-mode: multiply;isolation: isolate"/>
      </g>
      <path id="Path_609" data-name="Path 609" d="M437.574,288.081c-.245,5.066,2.916,8.7,6.991,9.045,5.9.494,9.21-6.184,8.522-9.172Z" transform="translate(-412.363 -230.839)" fill-rule="evenodd" fill="url(#radial-gradient-3)"/>
      <ellipse id="Ellipse_5821" data-name="Ellipse 5821" cx="9.424" cy="11.074" rx="9.424" ry="11.074" transform="translate(23.215 51.309)" fill="url(#radial-gradient-4)" style="mix-blend-mode: screen;isolation: isolate"/>
      <path id="Path_610" data-name="Path 610" d="M435,284.183l.789,3.487a20.157,20.157,0,0,0,8.7,1.711,29.147,29.147,0,0,0,8.4-.987l1.315-4.21Z" transform="translate(-411.48 -229.539)" fill-rule="evenodd" fill="url(#radial-gradient-5)"/>
      <path id="Path_611" data-name="Path 611" d="M435.788,287.67c5.954-1.015,15.994-1.464,17.331,0l1.089-3.487H435Z" transform="translate(-411.48 -229.539)" fill-rule="evenodd" opacity="0.71" fill="url(#linear-gradient-15)" style="mix-blend-mode: multiply;isolation: isolate"/>
      <path id="Path_612" data-name="Path 612" d="M458.481,245.741s-.431,2.289-1.25,5.628c-1.474,6-4.207,15.4-7.958,20.981a63.346,63.346,0,0,1-11.627,1.052,21.225,21.225,0,0,1-8.669-1.6s-6.217-12.94-8.783-26.064Z" transform="translate(-406.379 -216.293)" fill-rule="evenodd" fill="url(#linear-gradient-16)"/>
      <path id="Path_613" data-name="Path 613" d="M458.481,245.741s-.431,2.289-1.25,5.628c-13.552-.5-27.673,1.378-29.641,4.783s2.051,13.685,5.235,15.439a16.08,16.08,0,0,0,4.821,1.812,21.225,21.225,0,0,1-8.669-1.6s-6.217-12.94-8.783-26.064Z" transform="translate(-406.379 -216.293)" fill-rule="evenodd" opacity="0.71" fill="url(#linear-gradient-15)" style="mix-blend-mode: multiply;isolation: isolate"/>
      <path id="Path_614" data-name="Path 614" d="M441.349,235.526c-19.13-.716-24.768,2.67-24.768,2.67s3.947,4.189,22.005,3.992S459.7,238.2,459.7,238.2,453.19,235.969,441.349,235.526Z" transform="translate(-405.134 -212.738)" fill-rule="evenodd" fill="url(#linear-gradient-18)"/>
      <path id="Path_615" data-name="Path 615" d="M457.9,229.954a65.026,65.026,0,0,1-23.39,2.871A51.439,51.439,0,0,1,421.65,230.4s-.066-17.15,17.4-17.582a21.641,21.641,0,0,1,5.261.478C456.807,216.088,457.9,229.954,457.9,229.954Z" transform="translate(-406.881 -204.946)" fill-rule="evenodd" fill="url(#radial-gradient-6)"/>
      <path id="Path_616" data-name="Path 616" d="M444.311,213.3l-.426.473c-1.382,1.628-12.088,2.072-12.088,2.072s-3.06.74-4.539,5.674,1.233,9.345,7.25,11.308A51.439,51.439,0,0,1,421.65,230.4s-.066-17.15,17.4-17.582A21.641,21.641,0,0,1,444.311,213.3Z" transform="translate(-406.881 -204.946)" fill-rule="evenodd" opacity="0.71" fill="url(#linear-gradient-19)" style="mix-blend-mode: multiply;isolation: isolate"/>
      <g id="Group_298" data-name="Group 298" transform="translate(23.675 10.153)">
        <path id="Path_617" data-name="Path 617" d="M452.574,225.343c0,4.256-3.881,7.706-8.668,7.706s-8.668-3.45-8.668-7.706,3.653-9.041,8.441-9.041S452.574,221.087,452.574,225.343Z" transform="translate(-435.238 -216.302)" fill-rule="evenodd" opacity="0.5" fill="url(#linear-gradient-20)" style="mix-blend-mode: screen;isolation: isolate"/>
        <path id="Path_618" data-name="Path 618" d="M451.826,227.386c0,3.482-3.055,5.866-6.972,5.866s-7.212-2.384-7.212-5.866,3.176-6.305,7.092-6.305S451.826,223.9,451.826,227.386Z" transform="translate(-436.066 -217.949)" fill="#2b1f54" fill-rule="evenodd"/>
        <path id="Path_619" data-name="Path 619" d="M450.859,228.339a5.053,5.053,0,1,1-10.1,0,5.087,5.087,0,0,1,10.1,0Z" transform="translate(-437.139 -218.902)" fill-rule="evenodd" fill="url(#radial-gradient-7)"/>
        <path id="Path_620" data-name="Path 620" d="M437.621,226.986l2.19,1.487s1.306-2.1,5.319-2.1c4.079,0,4.614,1.418,4.614,1.418l1.646-2.538s-1.421-3.956-6.677-4.175S437.25,225.531,437.621,226.986Z" transform="translate(-436.045 -217.945)" fill-rule="evenodd" fill="url(#linear-gradient-21)" style="mix-blend-mode: multiply;isolation: isolate"/>
      </g>
      <g id="Group_299" data-name="Group 299" transform="translate(12.871 30.369)">
        <path id="Path_621" data-name="Path 621" d="M424.007,249.465a2.748,2.748,0,0,1-.68,1.116l-.048.043a2.829,2.829,0,0,1-3.582,0h0a2.335,2.335,0,0,1-.9-2.3Z" transform="translate(-418.754 -247.552)" fill-rule="evenodd" fill="url(#linear-gradient-22)"/>
        <path id="Path_622" data-name="Path 622" d="M441.291,250.65a4.177,4.177,0,0,1-.986,1.686,4.12,4.12,0,0,1-5.144.228h0a3.118,3.118,0,0,1-1.567-2.505Z" transform="translate(-423.868 -248.149)" fill-rule="evenodd" fill="url(#linear-gradient-23)"/>
        <path id="Path_623" data-name="Path 623" d="M462.549,250.058a2.226,2.226,0,0,1-.32,1.148,4.14,4.14,0,0,1-4.615,1.452,3.115,3.115,0,0,1-2.038-2.074Z" transform="translate(-431.442 -248.149)" fill-rule="evenodd" fill="url(#linear-gradient-23)"/>
        <path id="Path_624" data-name="Path 624" d="M477.147,248.565a3.819,3.819,0,0,1-4.347,1.647h0l-.018-.008a2.545,2.545,0,0,1-.248-.113,3.838,3.838,0,0,1-1.5-1.467l6.513-1.478A2.236,2.236,0,0,1,477.147,248.565Z" transform="translate(-436.768 -247.146)" fill-rule="evenodd" fill="url(#linear-gradient-23)"/>
        <path id="Path_625" data-name="Path 625" d="M424.007,249.465a2.748,2.748,0,0,1-.68,1.116l-.048.043c-.117-.646-2.842-.884-3.582,0h0a2.335,2.335,0,0,1-.9-2.3Z" transform="translate(-418.754 -247.552)" fill-rule="evenodd" opacity="0.71" fill="url(#linear-gradient-15)" style="mix-blend-mode: multiply;isolation: isolate"/>
        <path id="Path_626" data-name="Path 626" d="M441.291,250.65a4.177,4.177,0,0,1-.986,1.686c-.148-1.06-5.083-.617-5.144.227a3.118,3.118,0,0,1-1.567-2.505Z" transform="translate(-423.868 -248.149)" fill-rule="evenodd" opacity="0.71" fill="url(#linear-gradient-15)" style="mix-blend-mode: multiply;isolation: isolate"/>
        <path id="Path_627" data-name="Path 627" d="M462.549,250.058a2.226,2.226,0,0,1-.32,1.148h0c-.551-.463-4.334.366-4.613,1.452h0a3.115,3.115,0,0,1-2.038-2.074Z" transform="translate(-431.442 -248.149)" fill-rule="evenodd" opacity="0.71" fill="url(#linear-gradient-15)" style="mix-blend-mode: multiply;isolation: isolate"/>
        <path id="Path_628" data-name="Path 628" d="M477.147,248.565c-.6-1.066-3.613.447-4.347,1.647h0l-.018-.008-.248-.113a3.838,3.838,0,0,1-1.5-1.467l6.513-1.478A2.236,2.236,0,0,1,477.147,248.565Z" transform="translate(-436.768 -247.146)" fill-rule="evenodd" opacity="0.71" fill="url(#linear-gradient-15)" style="mix-blend-mode: multiply;isolation: isolate"/>
      </g>
      <path id="Path_629" data-name="Path 629" d="M416.42,239.651a12.924,12.924,0,0,0,0,5.57s16.38,6.674,43.122-.462c0,0,.691-1.4,0-5.108,0,0-9.966,4.189-24.669,3.2S416.42,239.651,416.42,239.651Z" transform="translate(-404.973 -214.194)" fill-rule="evenodd" fill="url(#radial-gradient-8)"/>
      <path id="Path_630" data-name="Path 630" d="M441.272,212.788l.2-2.829,8.733.073.444,2.757A15.557,15.557,0,0,1,441.272,212.788Z" transform="translate(-413.642 -203.963)" fill-rule="evenodd" fill="url(#radial-gradient-9)"/>
      <path id="Path_631" data-name="Path 631" d="M450.306,209.617c0,.472-2.029.846-4.444.846s-4.288-.447-4.288-.919,1.873-.789,4.288-.789S450.306,209.146,450.306,209.617Z" transform="translate(-413.746 -203.548)" fill-rule="evenodd" fill="url(#linear-gradient-30)"/>
      <g id="Group_300" data-name="Group 300" transform="translate(30.199)">
        <path id="Path_632" data-name="Path 632" d="M445.192,207.232a4.443,4.443,0,0,0,3.833.1s-.375-5.481-1.763-5.475S445.192,207.232,445.192,207.232Z" transform="translate(-445.192 -201.171)" fill-rule="evenodd" fill="url(#radial-gradient-10)"/>
        <path id="Path_633" data-name="Path 633" d="M448.494,202.749c-.462,1.371.558,2.03.587,1.383S448.613,202.4,448.494,202.749Z" transform="translate(-446.288 -201.455)" fill="#fff" fill-rule="evenodd"/>
        <path id="Path_634" data-name="Path 634" d="M446.534,202.68c1.141,2.386-1.322,4.736-1.322,4.736a23.579,23.579,0,0,1,.812-3.632C446.423,202.865,446.534,202.68,446.534,202.68Z" transform="translate(-445.199 -201.455)" fill-rule="evenodd" opacity="0.64" fill="url(#linear-gradient-31)" style="mix-blend-mode: screen;isolation: isolate"/>
        <ellipse id="Ellipse_5822" data-name="Ellipse 5822" cx="1.356" cy="2.565" rx="1.356" ry="2.565" transform="translate(1.083)" fill="url(#radial-gradient-11)" style="mix-blend-mode: screen;isolation: isolate"/>
      </g>
      <path id="Path_635" data-name="Path 635" d="M450.176,211.218l1.823-.272.2,2.567-2.268.305Z" transform="translate(-416.625 -204.303)" fill-rule="evenodd" fill="url(#radial-gradient-12)" style="mix-blend-mode: screen;isolation: isolate"/>
      <path id="Path_636" data-name="Path 636" d="M470.35,242.4s-2.462.551-5.31.96v4.7s3.838-.606,5.7-1.01Z" transform="translate(-421.832 -215.141)" fill-rule="evenodd" fill="url(#radial-gradient-13)" style="mix-blend-mode: screen;isolation: isolate"/>
      <path id="Path_637" data-name="Path 637" d="M451.644,261.931l-3.181-.305,1.294,43.072h1.135Z" transform="translate(-416.119 -221.766)" fill-rule="evenodd" fill="url(#linear-gradient-32)"/>
      <path id="Path_638" data-name="Path 638" d="M448.463,260.147l3.181.305-.357-3.118h-2.274Z" transform="translate(-416.119 -220.287)" fill-rule="evenodd" fill="url(#radial-gradient-14)"/>
      <path id="Path_639" data-name="Path 639" d="M446.18,257.334s-2.831,4.956-5.938,19.73l3.307.34-1.017,2.441,3.763.284-.665-19.983Z" transform="translate(-413.287 -220.287)" fill-rule="evenodd" opacity="0.71" fill="url(#linear-gradient-7)" style="mix-blend-mode: multiply;isolation: isolate"/>
      <path id="Path_640" data-name="Path 640" d="M440.242,242.987s13.848,1.857,25.69-2.293C465.932,240.694,456.03,243.961,440.242,242.987Z" transform="translate(-413.287 -214.554)" fill-rule="evenodd" fill="url(#linear-gradient-13)" style="mix-blend-mode: screen;isolation: isolate"/>
      <path id="Path_641" data-name="Path 641" d="M461.047,276.011c6.594-12.779,5.105-27.21-1.464-15.064-3.006,5.559-5.218,15.941-5.218,15.941Z" transform="translate(-418.153 -219.953)" fill-rule="evenodd" opacity="0.2" fill="url(#linear-gradient-35)" style="mix-blend-mode: screen;isolation: isolate"/>
      <path id="Path_642" data-name="Path 642" d="M421.631,246.09a46.309,46.309,0,0,1,5.138-4.612h5.816a55.642,55.642,0,0,1-12.857-2.422l.063-1.131s-2.892.56-3.385,1.131c0,0-.757,3.6,0,5.57Z" transform="translate(-404.957 -213.599)" fill-rule="evenodd" opacity="0.71" fill="url(#linear-gradient-36)" style="mix-blend-mode: multiply;isolation: isolate"/>
      <path id="Path_643" data-name="Path 643" d="M463.517,259.692a9.211,9.211,0,0,0-2.894,4.735C460.53,264.959,464.276,259.11,463.517,259.692Z" transform="translate(-420.309 -221.086)" fill="#fff" fill-rule="evenodd"/>
      <path id="Path_644" data-name="Path 644" d="M459.007,216.5c-1.469-.075.517,2.318,1.379,1.992S459.859,216.542,459.007,216.5Z" transform="translate(-419.572 -206.216)" fill="#fff" fill-rule="evenodd"/>
      <path id="Path_645" data-name="Path 645" d="M446.417,236.021c-.463.387,1.737.671,1.983.188S447.441,235.165,446.417,236.021Z" transform="translate(-415.393 -212.79)" fill="#72ffff" fill-rule="evenodd"/>
      <path id="Path_646" data-name="Path 646" d="M461.584,217.607a3.676,3.676,0,1,1-3.676-3.676A3.677,3.677,0,0,1,461.584,217.607Z" transform="translate(-418.107 -205.332)" fill-rule="evenodd" fill="url(#radial-gradient-15)" style="mix-blend-mode: screen;isolation: isolate"/>
    </g>
    <g id="Group_305" data-name="Group 305" transform="translate(86.872 238.568)">
      <circle id="Ellipse_5823" data-name="Ellipse 5823" cx="108.449" cy="108.449" r="108.449" transform="translate(8.081 9.581)" fill="url(#radial-gradient-16)" style="mix-blend-mode: screen;isolation: isolate"/>
      <circle id="Ellipse_5824" data-name="Ellipse 5824" cx="70.58" cy="70.58" r="70.58" transform="translate(35.436 176.227) rotate(-80.665)" fill="url(#radial-gradient-16)" style="mix-blend-mode: screen;isolation: isolate"/>
      <g id="Group_302" data-name="Group 302" transform="translate(46.72 54.701)">
        <path id="Path_647" data-name="Path 647" d="M402.072,140.835c8.683,62.04,95.1,64.5,124.865,29.782s21.915-91.78-35.144-106.664S396.607,101.779,402.072,140.835Z" transform="translate(-401.552 -61.374)" fill-rule="evenodd" fill="url(#radial-gradient-18)"/>
        <path id="Path_648" data-name="Path 648" d="M427.046,86.086c-9.618,30.606,66.345,22.1,63.673,0S434.9,61.09,427.046,86.086Z" transform="translate(-382.7 -55.995)" fill="#b9bfe2" fill-rule="evenodd" style="mix-blend-mode: multiply;isolation: isolate"/>
        <path id="Path_649" data-name="Path 649" d="M472.364,94.933c-23.644-.48-31.491,49.616-7.511,54.164S492.693,95.348,472.364,94.933Z" transform="translate(-364.276 -35.711)" fill="#b9bfe2" fill-rule="evenodd" style="mix-blend-mode: multiply;isolation: isolate"/>
        <path id="Path_650" data-name="Path 650" d="M473.554,86.375c-14.685,2.342-5.345,21.753,4.163,21.763S483.034,84.862,473.554,86.375Z" transform="translate(-352.333 -42.308)" fill="#b9bfe2" fill-rule="evenodd" style="mix-blend-mode: multiply;isolation: isolate"/>
        <path id="Path_651" data-name="Path 651" d="M433.708,122.932c-6.593,18.032,19.381,1.463,15.272-5.744S435.776,117.278,433.708,122.932Z" transform="translate(-377.785 -20.988)" fill="#b9bfe2" fill-rule="evenodd" style="mix-blend-mode: multiply;isolation: isolate"/>
        <path id="Path_652" data-name="Path 652" d="M406.525,145.368C418,159,430.229,134.893,446.216,118.355S482.6,68.739,529.736,89.964c0,0-33.9-40.794-76.077-24.532s-50.442,49.339-50.718,58.987S402.115,140.131,406.525,145.368Z" transform="translate(-400.629 -61.199)" fill-rule="evenodd" fill="url(#radial-gradient-19)" style="mix-blend-mode: screen;isolation: isolate"/>
      </g>
      <path id="Path_653" data-name="Path 653" d="M583.763,77.637c-15.779-29.4-47.815-37.674-47.815-37.674s1.888-.028-12.763-2.257-16.878-1.249-16.878-1.249-36.335-2.091-84.562,28.07c-48.168,30.123-63.717,88.468-24.318,135.449,8.568,10.216,19.951,21.809,39.556,35.774s50.679,28.109,97,7.753,52.879-44.86,61.255-65.7C608.872,143.887,599.538,107.04,583.763,77.637ZM569.479,136.98c-3.7,0-11.494-4.936-14.637-9.269-1.043-1.435-1.262-2.407-1.119-2.84.06-.192.226-.7,1.622-.7,5.285,0,15.348,6.946,15.348,11.619C570.693,136.734,570.445,136.98,569.479,136.98ZM491.884,248.6c-3.755,0-5.974-1.048-6.6-3.115-.138-.455-.219-1.828,1.952-4.749C494.53,230.927,519.8,214.7,534.86,214.7c3.05,0,5.428.7,7.07,2.061,1.278,1.071,1.562,2.338.918,4.11C539.086,231.239,507.174,248.6,491.884,248.6Zm44.562-52.138a2.121,2.121,0,0,1,2.3,1.532,3.56,3.56,0,0,1-.72,3.29c-2.008,2.841-6.966,5.337-10.6,5.337h0a3.226,3.226,0,0,1-2.5-.81c-.323-.388-.019-1.186.187-1.625C526.632,200.958,532.631,196.465,536.446,196.465Zm35.694-81h0c-11.842,0-29.59-20.976-34.2-36.628-1.092-3.72-2.321-10.347,1.744-12.969a9.2,9.2,0,0,1,5.063-1.371c11.086,0,28.219,14.681,34.588,29.641,2.372,5.566,4.119,13.324-1.023,18.669A8.175,8.175,0,0,1,572.141,115.464ZM480.478,233.5c-1.571,3.464-4.516,5.224-8.75,5.224-5.18,0-12.078-2.709-18.456-7.241-6.157-4.38-10.889-9.832-12.343-14.228-1.022-3.092-.439-5.4,1.782-7.047,1.016-.755,3.171-1.186,5.917-1.186,9.141,0,25.49,4.844,31.139,13.608A10.778,10.778,0,0,1,480.478,233.5ZM428.234,112.268c-2.508-3.5-1.519-10.433,2.644-18.549,6.9-13.444,21.47-27.735,34.875-27.735a17.347,17.347,0,0,1,8.9,2.419c3.452,2.031,4.571,5.079,3.417,9.322-1.8,6.611-9.253,15.653-19.46,23.6-9.86,7.678-20.1,12.641-26.087,12.641C430.456,113.969,429.057,113.411,428.234,112.268Z" transform="translate(-375.079 -25.891)" fill-rule="evenodd" opacity="0.5" fill="url(#radial-gradient-20)" style="mix-blend-mode: screen;isolation: isolate"/>
      <path id="Path_654" data-name="Path 654" d="M572.133,99.311c-15.925,71.371-52.758,98.621-100.581,102.222-69.765,5.257-83.682-49.789-34.413-42.151C552.751,177.3,572.133,99.311,572.133,99.311Z" transform="translate(-349.996 22.341)" fill-rule="evenodd" fill="url(#linear-gradient-37)" style="mix-blend-mode: screen;isolation: isolate"/>
      <path id="Path_655" data-name="Path 655" d="M389.177,92.5c-29.435,49.867-6.632,99.789,35.493,95.181,6.876-.752,49-14.4,47.559-66.738s84.146-48.8,84.146-48.8S502.06,24.97,456.16,44.255,400.415,73.459,389.177,92.5Z" transform="translate(-374.465 -23.306)" fill-rule="evenodd" fill="url(#radial-gradient-21)" style="mix-blend-mode: screen;isolation: isolate"/>
      <path id="Path_656" data-name="Path 656" d="M396.54,188.576c14.944,15.692,39.737,29.71,39.737,29.71s41.518-66.906,79.153-87.167,69.92-5.854,69.92-5.854.927-31.962-8.3-51.065-85.392,37.63-114.962,85.761S396.54,188.576,396.54,188.576Z" transform="translate(-358.665 0.232)" fill-rule="evenodd" opacity="0.5" fill="url(#radial-gradient-22)" style="mix-blend-mode: screen;isolation: isolate"/>
      <g id="Group_303" data-name="Group 303" transform="translate(56.789 16.865)" opacity="0.5" style="mix-blend-mode: multiply;isolation: isolate">
        <path id="Path_657" data-name="Path 657" d="M469.4,52.975c-15.625,10.073,24.386,66.292,40.641,49.382S485.658,42.494,469.4,52.975Z" transform="translate(-362.45 -31.204)" fill-rule="evenodd" fill="url(#radial-gradient-23)"/>
        <path id="Path_658" data-name="Path 658" d="M478.716,43.146c-24.158-14.191-79.93,22.444-70.367,35.772S500.369,55.865,478.716,43.146Z" transform="translate(-407.258 -39.934)" fill-rule="evenodd" fill="url(#radial-gradient-24)"/>
        <path id="Path_659" data-name="Path 659" d="M414.125,134.748c-14.775,10.973,31.088,45.254,40.166,25.231S421.776,129.065,414.125,134.748Z" transform="translate(-404.23 31.429)" fill-rule="evenodd" fill="url(#radial-gradient-25)"/>
        <path id="Path_660" data-name="Path 660" d="M495.907,138.9c-13.691-11.446-62.132,20.623-59.187,30.405C441.638,185.655,509.6,150.34,495.907,138.9Z" transform="translate(-384.824 33.888)" fill-rule="evenodd" fill="url(#radial-gradient-26)"/>
        <path id="Path_661" data-name="Path 661" d="M475.5,86.964c-1.913,5.861,20.081,20.215,20.081,11.411C495.579,90.788,477.411,81.1,475.5,86.964Z" transform="translate(-355.16 -5.343)" fill-rule="evenodd" fill="url(#radial-gradient-27)"/>
        <path id="Path_662" data-name="Path 662" d="M476.07,128.724c-2.862-8.091-20.219,4.918-16.562,9.362S478.459,135.481,476.07,128.724Z" transform="translate(-367.684 25.985)" fill-rule="evenodd" fill="url(#radial-gradient-28)"/>
      </g>
      <path id="Path_663" data-name="Path 663" d="M408.814,58.486c-28.127,15-32.456,42.192-25.25,45.859S426.38,49.122,408.814,58.486Z" transform="translate(-370.939 -9.653)" fill="#fff" fill-rule="evenodd"/>
      <path id="Path_664" data-name="Path 664" d="M483.533,147.7c-12.957,4.306-34.8,12.279-26.581,13.64C461.06,162.019,493.263,144.465,483.533,147.7Z" transform="translate(-313.842 59.043)" fill="#fff" fill-rule="evenodd"/>
      <path id="Path_665" data-name="Path 665" d="M379.888,95.338c-2.6,7.633,5.09,6.374,5.79-.859S381.528,90.525,379.888,95.338Z" transform="translate(-371.808 15.42)" fill="#fff" fill-rule="evenodd"/>
      <path id="Path_666" data-name="Path 666" d="M402.511,142.481s-8.409,21.255,10.571,31.152c21.287,11.1,36.8-5.845,36.8-5.845s-.291-5.506-6.969-11.737C432.3,146.143,412.26,134.66,402.511,142.481Z" transform="translate(-355.518 53.378)" fill-rule="evenodd" opacity="0.92" fill="url(#radial-gradient-29)" style="mix-blend-mode: screen;isolation: isolate"/>
      <path id="Path_667" data-name="Path 667" d="M402.63,142.178c12.772-8.166,13.746,12.375,15.943,19.608,3.974,13.08,11.072,14.671,11.072,14.671a31.109,31.109,0,0,1-22.31-7.5C395.5,158.495,402.63,142.178,402.63,142.178Z" transform="translate(-355.637 53.681)" fill-rule="evenodd" fill="url(#linear-gradient-38)" style="mix-blend-mode: screen;isolation: isolate"/>
      <path id="Path_668" data-name="Path 668" d="M434.949,154.257a42.8,42.8,0,0,1-15.44,10.513S432.277,164.452,434.949,154.257Z" transform="translate(-341.099 64.362)" fill="#fff" fill-rule="evenodd"/>
      <g id="Group_304" data-name="Group 304" transform="translate(53.857)">
        <path id="Path_669" data-name="Path 669" d="M413.46,65.833s-1.495-27.317,23.92-34.007c28.506-7.5,39.746,16.591,39.746,16.591s-2.427,6.426-12.417,12.027C448.826,69.346,421.6,77.636,413.46,65.833Z" transform="translate(-399.594 -30.377)" fill-rule="evenodd" opacity="0.92" fill="url(#radial-gradient-30)" style="mix-blend-mode: screen;isolation: isolate"/>
        <path id="Path_670" data-name="Path 670" d="M413.48,65.58c11.457,13,20.388-11,25.651-18.959,9.514-14.4,18.216-14.413,18.216-14.413a37.411,37.411,0,0,0-28.3,2.981C411.562,44.431,413.48,65.58,413.48,65.58Z" transform="translate(-399.614 -30.124)" fill-rule="evenodd" fill="url(#linear-gradient-39)" style="mix-blend-mode: screen;isolation: isolate"/>
        <path id="Path_671" data-name="Path 671" d="M454.542,49.367a44.52,44.52,0,0,0-13.6-16.479S455.378,36.624,454.542,49.367Z" transform="translate(-378.568 -28.457)" fill="#fff" fill-rule="evenodd"/>
        <path id="Path_672" data-name="Path 672" d="M406.387,71.567s-3.912-11.951,6.577-17.944c11.764-6.722,19.621,2.64,19.621,2.64s-.314,3.141-4.084,6.817C422.509,68.921,411.4,75.839,406.387,71.567Z" transform="translate(-405.537 -14.458)" fill-rule="evenodd" opacity="0.92" fill="url(#radial-gradient-31)" style="mix-blend-mode: screen;isolation: isolate"/>
        <path id="Path_673" data-name="Path 673" d="M406.446,71.428c6.632,4.412,7.746-7.306,9.134-11.469,2.513-7.525,6.374-8.564,6.374-8.564a17.2,17.2,0,0,0-12.21,4.687C403.079,62.265,406.446,71.428,406.446,71.428Z" transform="translate(-405.596 -14.318)" fill-rule="evenodd" fill="url(#linear-gradient-40)" style="mix-blend-mode: screen;isolation: isolate"/>
        <path id="Path_674" data-name="Path 674" d="M424.191,57.364a20.459,20.459,0,0,0-8-5.7S423.047,51.606,424.191,57.364Z" transform="translate(-397.493 -14.098)" fill="#fff" fill-rule="evenodd"/>
        <path id="Path_675" data-name="Path 675" d="M437.951,61.976s.994-16.033,16.273-18.2c17.138-2.428,22.047,12.392,22.047,12.392s-1.855,3.581-8.063,6.164C458.336,66.442,441.892,69.416,437.951,61.976Z" transform="translate(-380.852 -20.335)" fill-rule="evenodd" opacity="0.92" fill="url(#radial-gradient-32)" style="mix-blend-mode: screen;isolation: isolate"/>
        <path id="Path_676" data-name="Path 676" d="M437.951,61.859c5.792,8.367,12.643-5.019,16.255-9.3,6.531-7.749,11.607-7.16,11.607-7.16a21.957,21.957,0,0,0-16.707-.2C438.277,49.394,437.951,61.859,437.951,61.859Z" transform="translate(-380.852 -20.218)" fill-rule="evenodd" fill="url(#linear-gradient-41)" style="mix-blend-mode: screen;isolation: isolate"/>
        <path id="Path_677" data-name="Path 677" d="M461.989,56.14A26.15,26.15,0,0,0,455.181,45.6S463.348,48.763,461.989,56.14Z" transform="translate(-367.675 -18.736)" fill="#fff" fill-rule="evenodd"/>
        <path id="Path_678" data-name="Path 678" d="M413.867,56.485c3.886,4.659,10.686-19.7,7.541-18.285S411.753,53.95,413.867,56.485Z" transform="translate(-399.587 -24.44)" fill="#fff" fill-rule="evenodd"/>
        <path id="Path_679" data-name="Path 679" d="M440.8,58.093c5.96-2.354,4.583-15.069,1.594-10.257S435.283,60.273,440.8,58.093Z" transform="translate(-380.75 -17.85)" fill="#fff" fill-rule="evenodd"/>
      </g>
      <path id="Path_680" data-name="Path 680" d="M401.465,145.359c-3.381,13.467,4.857,12.789,6.207,6.89S404.257,134.248,401.465,145.359Z" transform="translate(-355.517 54.094)" fill="#fff" fill-rule="evenodd"/>
    </g>
  </g>
</svg>
