<svg xmlns="http://www.w3.org/2000/svg" xmlns:xlink="http://www.w3.org/1999/xlink" width="260.854" height="275.854" viewBox="0 0 260.854 275.854">
  <defs>
    <radialGradient id="radial-gradient" cx="-0.118" cy="0.784" r="0.952" gradientUnits="objectBoundingBox">
      <stop offset="0.006" stop-color="#ffc22e"/>
      <stop offset="0.197" stop-color="#febc2e"/>
      <stop offset="0.432" stop-color="#fcad2f"/>
      <stop offset="0.689" stop-color="#fa9430"/>
      <stop offset="0.961" stop-color="#f67232"/>
      <stop offset="1" stop-color="#f66d33"/>
    </radialGradient>
    <linearGradient id="linear-gradient" x1="0.694" y1="0.703" x2="0.364" y2="0.309" gradientUnits="objectBoundingBox">
      <stop offset="0" stop-color="#e74136"/>
      <stop offset="1" stop-color="#f09e50"/>
    </linearGradient>
    <linearGradient id="linear-gradient-2" x1="1.034" y1="1.136" x2="0.202" y2="0.008" xlink:href="#linear-gradient"/>
    <radialGradient id="radial-gradient-2" cx="0.398" cy="0.318" r="0.677" gradientUnits="objectBoundingBox">
      <stop offset="0.006" stop-color="#de6b52"/>
      <stop offset="0.192" stop-color="#da6851"/>
      <stop offset="0.337" stop-color="#d16151"/>
      <stop offset="0.467" stop-color="#c0544f"/>
      <stop offset="0.59" stop-color="#a9424e"/>
      <stop offset="0.706" stop-color="#8b2b4c"/>
      <stop offset="0.817" stop-color="#660f49"/>
      <stop offset="0.872" stop-color="#520048"/>
      <stop offset="1" stop-color="#6b1944"/>
    </radialGradient>
    <radialGradient id="radial-gradient-3" cx="0.398" cy="0.318" r="0.733" gradientUnits="objectBoundingBox">
      <stop offset="0" stop-color="#ffff4a"/>
      <stop offset="1"/>
    </radialGradient>
    <linearGradient id="linear-gradient-3" x1="0.493" y1="0.157" x2="0.51" y2="1.07" gradientUnits="objectBoundingBox">
      <stop offset="0" stop-color="#280077"/>
      <stop offset="1" stop-color="#eaaee6"/>
    </linearGradient>
    <linearGradient id="linear-gradient-4" x1="0.505" y1="0.871" x2="0.496" y2="0.299" xlink:href="#linear-gradient-3"/>
    <radialGradient id="radial-gradient-4" cx="0.317" cy="0.292" r="0.464" xlink:href="#radial-gradient"/>
    <radialGradient id="radial-gradient-5" cx="-0.455" cy="-0.487" r="1.44" xlink:href="#radial-gradient"/>
    <linearGradient id="linear-gradient-5" y1="0.5" x2="1" y2="0.5" gradientUnits="objectBoundingBox">
      <stop offset="0.006" stop-color="#ffb80b"/>
      <stop offset="0.388" stop-color="#feb50c"/>
      <stop offset="0.579" stop-color="#fdae10"/>
      <stop offset="0.727" stop-color="#fca017"/>
      <stop offset="0.854" stop-color="#f98e21"/>
      <stop offset="0.965" stop-color="#f7762e"/>
      <stop offset="1" stop-color="#f66d33"/>
    </linearGradient>
    <linearGradient id="linear-gradient-6" x1="0.709" y1="0.581" x2="-0.323" y2="0.221" xlink:href="#linear-gradient"/>
    <linearGradient id="linear-gradient-7" x1="0.74" y1="0.5" x2="0.026" y2="0.5" xlink:href="#linear-gradient"/>
    <linearGradient id="linear-gradient-8" x1="0.782" y1="0.776" x2="0.129" y2="0.401" xlink:href="#linear-gradient"/>
    <linearGradient id="linear-gradient-9" x1="0" y1="0.5" x2="1" y2="0.5" xlink:href="#linear-gradient"/>
    <linearGradient id="linear-gradient-12" y1="0.5" x2="1" y2="0.5" gradientUnits="objectBoundingBox">
      <stop offset="0.021" stop-color="#ef8c1d"/>
      <stop offset="0.18" stop-color="#bb6d16"/>
      <stop offset="0.4" stop-color="#79470e"/>
      <stop offset="0.601" stop-color="#452808"/>
      <stop offset="0.774" stop-color="#1f1203"/>
      <stop offset="0.913" stop-color="#080401"/>
      <stop offset="1"/>
    </linearGradient>
    <linearGradient id="linear-gradient-13" x1="0.91" y1="0.087" x2="-0.047" y2="0.785" gradientUnits="objectBoundingBox">
      <stop offset="0" stop-color="#8a2787"/>
      <stop offset="1" stop-color="#8880ea"/>
    </linearGradient>
    <linearGradient id="linear-gradient-14" x1="0.886" y1="0.155" x2="0.115" y2="0.71" xlink:href="#linear-gradient-13"/>
    <linearGradient id="linear-gradient-15" x1="0.936" y1="0.756" x2="-0.395" y2="-0.051" xlink:href="#linear-gradient"/>
    <linearGradient id="linear-gradient-16" x1="0.395" y1="0.562" x2="-0.664" y2="-0.049" xlink:href="#linear-gradient"/>
    <radialGradient id="radial-gradient-6" cx="0.5" cy="0.5" r="0.5" gradientUnits="objectBoundingBox">
      <stop offset="0" stop-color="#ff5b00"/>
      <stop offset="1" stop-opacity="0"/>
    </radialGradient>
    <radialGradient id="radial-gradient-7" cx="0.5" r="0.514" xlink:href="#radial-gradient-6"/>
    <radialGradient id="radial-gradient-9" cx="0.5" cy="0.5" r="0.833" gradientUnits="objectBoundingBox">
      <stop offset="0" stop-color="#f1e532"/>
      <stop offset="0.138" stop-color="#c4bb28"/>
      <stop offset="0.373" stop-color="#7f791a"/>
      <stop offset="0.586" stop-color="#48450f"/>
      <stop offset="0.767" stop-color="#211f06"/>
      <stop offset="0.912" stop-color="#080801"/>
      <stop offset="1"/>
    </radialGradient>
    <radialGradient id="radial-gradient-10" cx="0.5" cy="0.5" r="0.5" gradientUnits="objectBoundingBox">
      <stop offset="0" stop-color="#317aff"/>
      <stop offset="0.105" stop-color="#2967d7"/>
      <stop offset="0.292" stop-color="#1c4896"/>
      <stop offset="0.47" stop-color="#122e60"/>
      <stop offset="0.635" stop-color="#0a1a37"/>
      <stop offset="0.783" stop-color="#040b18"/>
      <stop offset="0.91" stop-color="#010306"/>
      <stop offset="1"/>
    </radialGradient>
    <radialGradient id="radial-gradient-15" cx="0.616" cy="0.783" r="0.947" gradientUnits="objectBoundingBox">
      <stop offset="0.006" stop-color="#60dbff"/>
      <stop offset="0.182" stop-color="#56d4ff"/>
      <stop offset="0.479" stop-color="#3cc3ff"/>
      <stop offset="0.857" stop-color="#11a8ff"/>
      <stop offset="1" stop-color="#009dff"/>
    </radialGradient>
    <linearGradient id="linear-gradient-17" x1="0.631" y1="0.174" x2="0.354" y2="1.133" gradientUnits="objectBoundingBox">
      <stop offset="0" stop-color="#fff"/>
      <stop offset="0.098" stop-color="#edf4ff"/>
      <stop offset="0.39" stop-color="#bed7ff"/>
      <stop offset="0.647" stop-color="#9cc2ff"/>
      <stop offset="0.86" stop-color="#87b5ff"/>
      <stop offset="1" stop-color="#80b1ff"/>
    </linearGradient>
    <linearGradient id="linear-gradient-18" x1="0.546" y1="0.5" x2="-0.062" y2="0.5" gradientUnits="objectBoundingBox">
      <stop offset="0" stop-color="#e7e3f4"/>
      <stop offset="0.073" stop-color="#dfd6eb"/>
      <stop offset="0.372" stop-color="#c1a7cc"/>
      <stop offset="0.637" stop-color="#ab85b6"/>
      <stop offset="0.856" stop-color="#9e70a8"/>
      <stop offset="1" stop-color="#9a69a4"/>
    </linearGradient>
    <radialGradient id="radial-gradient-16" cx="0.704" cy="2.071" r="2.947" gradientUnits="objectBoundingBox">
      <stop offset="0.006" stop-color="#ff9aff"/>
      <stop offset="0.082" stop-color="#fb94ff"/>
      <stop offset="0.184" stop-color="#f083ff"/>
      <stop offset="0.301" stop-color="#df67ff"/>
      <stop offset="0.427" stop-color="#c740ff"/>
      <stop offset="0.561" stop-color="#a810ff"/>
      <stop offset="0.601" stop-color="#9f00ff"/>
      <stop offset="0.64" stop-color="#9100f0"/>
      <stop offset="0.735" stop-color="#7500d2"/>
      <stop offset="0.828" stop-color="#6100bc"/>
      <stop offset="0.917" stop-color="#5600af"/>
      <stop offset="1" stop-color="#5200ab"/>
    </radialGradient>
    <linearGradient id="linear-gradient-19" x1="0.532" y1="0.945" x2="0.406" y2="0.049" gradientUnits="objectBoundingBox">
      <stop offset="0.006" stop-color="#fc0"/>
      <stop offset="0.223" stop-color="#fec802"/>
      <stop offset="0.408" stop-color="#fbbe08"/>
      <stop offset="0.581" stop-color="#f7ac12"/>
      <stop offset="0.748" stop-color="#f19321"/>
      <stop offset="0.907" stop-color="#ea7434"/>
      <stop offset="1" stop-color="#e55e42"/>
    </linearGradient>
    <linearGradient id="linear-gradient-20" x1="0.519" y1="1.295" x2="0.452" y2="0.164" xlink:href="#linear-gradient-19"/>
    <linearGradient id="linear-gradient-21" x1="0.453" y1="1.263" x2="0.563" y2="-0.099" xlink:href="#linear-gradient-19"/>
    <linearGradient id="linear-gradient-22" x1="0.482" y1="0.819" x2="0.605" y2="0.052" xlink:href="#linear-gradient-19"/>
    <radialGradient id="radial-gradient-17" cx="0.5" cy="0.5" r="0.5" gradientUnits="objectBoundingBox">
      <stop offset="0.006" stop-color="#f4ff09"/>
      <stop offset="0.066" stop-color="#dee808"/>
      <stop offset="0.267" stop-color="#9ba205"/>
      <stop offset="0.457" stop-color="#646803"/>
      <stop offset="0.631" stop-color="#393b02"/>
      <stop offset="0.785" stop-color="#191b00"/>
      <stop offset="0.913" stop-color="#060700"/>
      <stop offset="1"/>
    </radialGradient>
    <radialGradient id="radial-gradient-21" cx="0.695" cy="0.361" r="1.892" gradientUnits="objectBoundingBox">
      <stop offset="0" stop-color="#ffd5bd"/>
      <stop offset="0.103" stop-color="#f8d0bf"/>
      <stop offset="0.253" stop-color="#e4c2c6"/>
      <stop offset="0.43" stop-color="#c5abd1"/>
      <stop offset="0.627" stop-color="#998ce1"/>
      <stop offset="0.754" stop-color="#7a75ed"/>
      <stop offset="0.975" stop-color="#7a82ed"/>
    </radialGradient>
    <radialGradient id="radial-gradient-22" cx="0.695" cy="0.361" r="2.287" xlink:href="#radial-gradient-21"/>
    <radialGradient id="radial-gradient-23" cx="0.695" cy="0.361" r="1.636" xlink:href="#radial-gradient-21"/>
    <radialGradient id="radial-gradient-24" cx="0.695" cy="0.361" r="1.392" xlink:href="#radial-gradient-21"/>
    <radialGradient id="radial-gradient-25" cx="0.731" cy="0.497" r="2.672" gradientUnits="objectBoundingBox">
      <stop offset="0" stop-color="#ccc7bf"/>
      <stop offset="0.121" stop-color="#c5c0bf"/>
      <stop offset="0.296" stop-color="#b3acbf"/>
      <stop offset="0.504" stop-color="#958dc0"/>
      <stop offset="0.735" stop-color="#6b61c1"/>
      <stop offset="0.754" stop-color="#685ec2"/>
      <stop offset="0.975" stop-color="#7a75d8"/>
    </radialGradient>
    <linearGradient id="linear-gradient-23" x1="0.683" y1="-0.022" x2="0.535" y2="0.703" gradientUnits="objectBoundingBox">
      <stop offset="0" stop-color="#f3a840"/>
      <stop offset="0.006" stop-color="#f3a840"/>
      <stop offset="0.035" stop-color="#e8a03d"/>
      <stop offset="1" stop-opacity="0"/>
    </linearGradient>
    <radialGradient id="radial-gradient-26" cx="0.719" cy="0.468" r="2.652" gradientUnits="objectBoundingBox">
      <stop offset="0" stop-color="#f4b2d1"/>
      <stop offset="0.09" stop-color="#eaabd1"/>
      <stop offset="0.242" stop-color="#d09ad2"/>
      <stop offset="0.437" stop-color="#a67ed4"/>
      <stop offset="0.664" stop-color="#6c58d7"/>
      <stop offset="0.754" stop-color="#5348d9"/>
      <stop offset="0.975" stop-color="#7a82ed"/>
    </radialGradient>
    <linearGradient id="linear-gradient-24" x1="16.437" y1="224.304" x2="17.042" y2="224.304" gradientUnits="objectBoundingBox">
      <stop offset="0" stop-color="#e55e42"/>
      <stop offset="0.093" stop-color="#ea7434"/>
      <stop offset="0.252" stop-color="#f19321"/>
      <stop offset="0.419" stop-color="#f7ac12"/>
      <stop offset="0.592" stop-color="#fbbe08"/>
      <stop offset="0.777" stop-color="#fec802"/>
      <stop offset="0.994" stop-color="#fc0"/>
    </linearGradient>
    <linearGradient id="linear-gradient-25" x1="0.8" y1="-0.213" x2="0.099" y2="1.447" gradientUnits="objectBoundingBox">
      <stop offset="0" stop-color="#b3a6db"/>
      <stop offset="0.413" stop-color="#a585bd"/>
      <stop offset="0.766" stop-color="#9d70aa"/>
      <stop offset="1" stop-color="#9a69a4"/>
    </linearGradient>
    <linearGradient id="linear-gradient-26" x1="0.64" y1="-0.572" x2="0.414" y2="1.16" xlink:href="#linear-gradient-25"/>
    <linearGradient id="linear-gradient-27" x1="2.148" y1="-0.007" x2="-4.308" y2="1.796" xlink:href="#linear-gradient-25"/>
    <linearGradient id="linear-gradient-28" x1="0.581" y1="-0.027" x2="0.092" y2="2.527" xlink:href="#linear-gradient-25"/>
    <linearGradient id="linear-gradient-29" x1="0.537" y1="-1.376" x2="0.358" y2="9.244" xlink:href="#linear-gradient-25"/>
    <radialGradient id="radial-gradient-27" cx="0.5" cy="0.5" r="1.391" gradientUnits="objectBoundingBox">
      <stop offset="0" stop-color="#fff"/>
      <stop offset="1" stop-color="#623964"/>
    </radialGradient>
    <radialGradient id="radial-gradient-28" cx="0.5" cy="0.5" r="0.537" xlink:href="#radial-gradient-27"/>
    <linearGradient id="linear-gradient-30" x1="0.664" y1="-1.18" x2="0.478" y2="0.726" gradientUnits="objectBoundingBox">
      <stop offset="0" stop-color="#9a69a4"/>
      <stop offset="0.109" stop-color="#a074af"/>
      <stop offset="0.712" stop-color="#c1b1e8"/>
      <stop offset="1" stop-color="#cec9ff"/>
    </linearGradient>
    <linearGradient id="linear-gradient-31" x1="0.763" y1="-0.423" x2="0.276" y2="1.285" xlink:href="#linear-gradient-30"/>
    <linearGradient id="linear-gradient-32" x1="2.536" y1="-0.127" x2="-3.787" y2="1.82" xlink:href="#linear-gradient-30"/>
    <linearGradient id="linear-gradient-33" x1="0.577" y1="-0.201" x2="0.231" y2="2.941" xlink:href="#linear-gradient-30"/>
    <linearGradient id="linear-gradient-34" x1="0.545" y1="-3.159" x2="0.391" y2="9.074" xlink:href="#linear-gradient-30"/>
    <radialGradient id="radial-gradient-29" cx="0.5" cy="0.5" r="0.319" xlink:href="#radial-gradient-17"/>
    <radialGradient id="radial-gradient-30" cx="0.5" cy="0.5" r="0.5" gradientUnits="objectBoundingBox">
      <stop offset="0" stop-color="#8a2787"/>
      <stop offset="0.002" stop-color="#8a2787"/>
      <stop offset="1" stop-opacity="0"/>
    </radialGradient>
    <radialGradient id="radial-gradient-31" cx="0.698" cy="0.969" r="1.04" gradientUnits="objectBoundingBox">
      <stop offset="0" stop-color="#ffd5bd"/>
      <stop offset="0.093" stop-color="#f8cfbe"/>
      <stop offset="0.227" stop-color="#e4c1c2"/>
      <stop offset="0.386" stop-color="#c5a9c8"/>
      <stop offset="0.565" stop-color="#9987d0"/>
      <stop offset="0.754" stop-color="#635edb"/>
      <stop offset="0.975" stop-color="#7a82ed"/>
    </radialGradient>
    <linearGradient id="linear-gradient-35" x1="0.729" y1="0.792" x2="0.213" y2="0.488" gradientUnits="objectBoundingBox">
      <stop offset="0" stop-color="#9a69a4"/>
      <stop offset="0.134" stop-color="#a274ab"/>
      <stop offset="0.375" stop-color="#b794be"/>
      <stop offset="0.694" stop-color="#d9c7dd"/>
      <stop offset="1" stop-color="#fff"/>
    </linearGradient>
    <radialGradient id="radial-gradient-32" cx="0.669" cy="0.886" r="0.924" xlink:href="#radial-gradient-31"/>
    <linearGradient id="linear-gradient-36" x1="0.805" y1="0.88" x2="-0.088" y2="0.339" xlink:href="#linear-gradient-35"/>
    <radialGradient id="radial-gradient-33" cx="0.93" cy="0.657" r="0.661" xlink:href="#radial-gradient-31"/>
    <linearGradient id="linear-gradient-37" x1="0.934" y1="0.346" x2="0.05" y2="0.511" xlink:href="#linear-gradient-35"/>
  </defs>
  <g id="Group_292" data-name="Group 292" transform="translate(-37.687 -190.962)">
    <g id="Group_291" data-name="Group 291" transform="translate(-165.482 184.708)">
      <path id="Path_515" data-name="Path 515" d="M333.741,76.787l-12.6-3.207,0,.019-2.237-.575-6.85-1.757-28.192-7.236c1.606-3.566,3.529-7.484,5.676-11.417,7.835-14.35,18.614-28.852,27.625-26.848a4.973,4.973,0,0,1,2.783,1.813c3.708,4.52,3.975,16.222,3.33,26.7a8.693,8.693,0,0,1,6-1.726c2.8.432,4.219,3.338,4.869,7C335.419,66.725,333.741,76.787,333.741,76.787Z" transform="translate(74.918 7.881)" fill="url(#radial-gradient)"/>
      <path id="Path_516" data-name="Path 516" d="M323.273,53.316c-6.25,6.842-9.523,12.643-11.222,16.99L283.859,63.07c1.606-3.566,3.529-7.484,5.676-11.417,9.689,6.019,29.645-5.379,30.408-25.035C323.651,31.138,323.917,42.84,323.273,53.316Z" transform="translate(74.918 8.844)" opacity="0.8" fill="url(#linear-gradient)" style="mix-blend-mode: multiply;isolation: isolate"/>
      <path id="Path_517" data-name="Path 517" d="M316.87,60.432l-12.6-3.207,0,.019-2.237-.575C313.169,54.39,317.275,43.2,317.275,43.2,318.547,50.369,316.87,60.432,316.87,60.432Z" transform="translate(91.789 24.237)" opacity="0.8" fill="url(#linear-gradient-2)" style="mix-blend-mode: multiply;isolation: isolate"/>
      <path id="Path_520" data-name="Path 520" d="M439.777,146.434A105.157,105.157,0,0,1,334.53,251.681,105.246,105.246,0,1,1,439.777,146.434Z" transform="translate(24.247 22.371)" fill="url(#radial-gradient-2)"/>
      <path id="Path_521" data-name="Path 521" d="M378.276,53.29a9.825,9.825,0,0,0-1.02.143,6.546,6.546,0,0,1-3.219-.214,18.807,18.807,0,0,0-2.289-.715c-1.254-.2-2.414-.733-3.668-.895a18.389,18.389,0,0,1-3.72-1.144,3.493,3.493,0,0,0-2.451,0,3.505,3.505,0,0,1-2.449-.5,13.427,13.427,0,0,0-2.9-.681c-2.611-.536-5.2-1.377-7.8-2.038a19.17,19.17,0,0,0-4.738-.428c-1.288-.019-2.451.357-3.739.357a16.312,16.312,0,0,1-2.451-.268c-.876-.162-1.77.017-2.646-.108a6.168,6.168,0,0,0-3.327.019,9.654,9.654,0,0,1-2.737.339,20.016,20.016,0,0,0-3.4.59,25.454,25.454,0,0,1-6.026.769c-1.217,0-3-.341-4.167.071-.752.268-1.128,1.072-1.647,1.608a32.019,32.019,0,0,0-3.076,3.13c-.841,1.163-1.788,2.362-1.716,3.828a11.485,11.485,0,0,0,1.215,3.919c.573,1.232.77,2.36-.5,3.184a19.655,19.655,0,0,1-5.259,2.54c-1.217.357-2.308.571-3.327-.3-.376-.322-.609-.949-1.074-1.2-.482-.249-.983,0-1.5.162a33.178,33.178,0,0,1-3.845,1.02c-.8.125-1.5.553-2.289.7-.949.179-1.628-.519-2.611-.285a24.046,24.046,0,0,1-4.187.966,6.21,6.21,0,0,1-3.165-.912c-.5-.287-.627-.573-1.2-.413a3.177,3.177,0,0,0-1.412,1.038c-.341.484-.467,1.109-.806,1.61-.357.555-.7,1.092-1.018,1.682a24.1,24.1,0,0,1-2.04,3.238c-.536.715-.912,1.68-1.5,2.343a7.133,7.133,0,0,1-1.36.876c-1.072.752-2.2,1.431-3.236,2.235-2,1.576-3.9,3.309-5.94,4.831a25.745,25.745,0,0,1-5.508,2.575c-1.109.447-2.254.769-3.363,1.234a5.139,5.139,0,0,0-1.323.573,9.888,9.888,0,0,0-.966,1.431,24.106,24.106,0,0,0-2.719,3.72,13.236,13.236,0,0,0-1,2.451c-.393,1.163-1.02,2.235-1.414,3.4-.806,2.432-.966,4.974-1.861,7.388a39.217,39.217,0,0,1-1.913,3.988c-1.109,2.181-1.271,4.775-1.593,7.189a15.262,15.262,0,0,0,.145,4.418,23.945,23.945,0,0,1,.177,4.543,7.528,7.528,0,0,1-2.056,4.4c-.931,1.126-2.343,1.556-3.381,2.557a8.057,8.057,0,0,0-2.308,3.059,13.458,13.458,0,0,0-.106,1.718c-.233,1.269-.555,2.467-.735,3.755a37.523,37.523,0,0,0-.231,4.7c0,.806-.054,1.63-.017,2.434.035.769.322,1.485.374,2.254.037.536-.071,1.072,0,1.608.108.609.339,1.234.484,1.824.357,1.431.625,2.827.895,4.258a33.449,33.449,0,0,0,1.18,3.917,42.305,42.305,0,0,1,1.286,5.384c.27,1.358.251,2.771.447,4.148.162,1.109.413,2.237.465,3.346.054,1.682-.357,3.361-.374,5.062-.019,2.862,1.126,5.724,1.788,8.478.2.769.393,1.556.609,2.326A103.138,103.138,0,0,1,333.059,42.863c2.254,0,4.472.071,6.69.214A102.126,102.126,0,0,1,378.276,53.29Z" transform="translate(24.86 23.927)" fill="#7d72b3" fill-rule="evenodd" opacity="0.3" style="mix-blend-mode: multiply;isolation: isolate"/>
      <path id="Path_522" data-name="Path 522" d="M423.743,90.572a105.257,105.257,0,0,0-175.875,115.6,105.256,105.256,0,1,1,175.875-115.6Z" transform="translate(24.247 22.371)" fill="url(#radial-gradient-3)" style="mix-blend-mode: screen;isolation: isolate"/>
      <path id="Path_523" data-name="Path 523" d="M439.03,145.858q.46-3.856.638-7.8c-25.143,9.783-62.226,23.539-69.681,22.609-10.4-1.3,56.508-30.757,69.41-36.384a103.2,103.2,0,0,0-1.732-12.076c-4.632,6.53-16.438,20.65-30.871,18.8-18.693-2.391,15.187-56.325,15.187-56.325a104.587,104.587,0,0,0-7.255-9.579c-9.33,42.187-75.332,53.945-88.675,52.989s-39.269-26.3-62.293-62.731a105.91,105.91,0,0,0-10.493,11.019c22.461,16.269,80.533,61.792,37.717,68.843-28.678,4.723-49.016-1.394-61.532-7.88q-.168,2.936-.166,5.918a104.725,104.725,0,0,0,15.871,55.6c36.435-10.58,97.627-26.734,94.933-15.058-2.347,10.171-38.274,31.133-65.711,45.826a104.685,104.685,0,0,0,11.783,7.124c32.614-27.643,78.161-64.829,82.627-57.094,5.431,9.4-3.163,38.953-13.526,66.8a104.191,104.191,0,0,0,18.128-5.363c2.434-26.079,8.084-57.9,17.721-64.947,7.93-5.8,26.655,1.77,40.158,8.626q1.958-4.544,3.487-9.3c-13.208-3.263-24.445-6.948-24.688-10.074C409.477,147.755,439.03,145.858,439.03,145.858Zm-67.055-31.993c1.595-2.233,9.885-4.783,21.686-12.437s12.955,2.274,6.7,8.929S369.559,117.247,371.975,113.864Zm-8.609,42.293c-28.667,10.146-83-7.66-75.257-12.637,8.929-5.741,102.361-26.148,109.057-20.089S392.034,146.01,363.367,156.158Z" transform="translate(24.247 35.537)" fill="#7d72b3" opacity="0.3" style="mix-blend-mode: multiply;isolation: isolate"/>
      <path id="Path_524" data-name="Path 524" d="M314.569,191.5a105.4,105.4,0,0,1-81.7-67.256l-.386-5.315,48.349-14.4a27.658,27.658,0,0,1,9.841,17.36s12.242,10.281,12.226,25.977C302.9,147.87,324.921,183.134,314.569,191.5Z" transform="translate(27.214 81.186)" opacity="0.6" fill="url(#linear-gradient-3)" style="mix-blend-mode: multiply;isolation: isolate"/>
      <path id="Path_525" data-name="Path 525" d="M355.638,132.714a105.547,105.547,0,0,1-52.125,42,30.12,30.12,0,0,1-1.429-10.9c.849-16.176,7.864-25.788,7.864-25.788a78.4,78.4,0,0,1-5.693-11.183l9.214-9.775,39.052,7.014Z" transform="translate(91.801 92.82)" opacity="0.6" fill="url(#linear-gradient-4)" style="mix-blend-mode: multiply;isolation: isolate"/>
      <path id="Path_526" data-name="Path 526" d="M313.228,184s-16.081,11.368-29.781,16.556c-7.076,2.677-13.517,3.707-16.776.663-11.922-11.129,20.4-45.041,20.829-45.491h0c-.471.27-25.267,14.527-43.121,19.665l-.019.006a.222.222,0,0,1-.054.017,55.283,55.283,0,0,1-5.741,1.352h-.006c-4.707.816-8.489.592-10.52-1.273-8.823-8.1,12.666-33.874,16.728-38.585l.014-.012c.4-.476.634-.731.634-.731s-12.965,3.4-16.791-1.7,12.327-32.954,15.092-33.642a16.4,16.4,0,0,1,12.215,1.961,25.474,25.474,0,0,1,6.7,5.533l.014-.035.01-.027c.239-.58,2.222-5.321,4.017-6.316,4.308-2.4,12.128-.833,17.512,3.645h0a16.954,16.954,0,0,1,3.955,4.646c4.462,7.862-.638,14.878-.638,14.878a24.536,24.536,0,0,1,13.852,8.722,20.634,20.634,0,0,1,1.88,2.972c5.1,9.779-1.807,13.393-1.807,13.393l-9.567,3.188a25.64,25.64,0,0,1,9.563,4.663C313.014,167.155,313.228,184,313.228,184Z" transform="translate(21.132 77.326)" fill="url(#radial-gradient-4)"/>
      <path id="Path_527" data-name="Path 527" d="M357.575,140.027a5.521,5.521,0,0,1-3.247,2.036c-5.319,1.352-13.75-1.948-13.97-2.035l.013.027.019.035c.783,1.533,15.239,30.1,6.343,36.716a7.615,7.615,0,0,1-.827.528c-9.617,5.3-31.307-11.027-39.567-20.937a37.82,37.82,0,0,1,6.073-7.909,31.17,31.17,0,0,1,6.046-4.783,7.756,7.756,0,0,1-.922-.21h0a25.964,25.964,0,0,1-7.685-3.789,45.393,45.393,0,0,1-6.649-5.421c-.3-4.075,3.379-19.645,16.787-24.065a26.462,26.462,0,0,1,12.292-.825l5.739,8.524a16.883,16.883,0,0,1,2.434-2.042c2.137-1.495,5.456-3.147,9.047-2.422C350.829,113.723,361.4,134.714,357.575,140.027Z" transform="translate(92.859 85.373)" fill="url(#radial-gradient-5)"/>
      <path id="Path_528" data-name="Path 528" d="M232.48,140.641l5.741-1.352A55.282,55.282,0,0,1,232.48,140.641Z" transform="translate(27.214 113.455)" fill="url(#linear-gradient-5)"/>
      <path id="Path_529" data-name="Path 529" d="M259.158,123.21a128.96,128.96,0,0,0-15.677,12.529c.4-.476.634-.731.634-.731s-12.965,3.4-16.791-1.7c11.584.742,34.1-22.332,27.307-31.681a25.475,25.475,0,0,1,6.7,5.533C257.563,118.427,259.158,123.21,259.158,123.21Z" transform="translate(22.428 78.488)" opacity="0.8" fill="url(#linear-gradient-6)" style="mix-blend-mode: multiply;isolation: isolate"/>
      <path id="Path_530" data-name="Path 530" d="M292.549,147.691l-9.567,3.188-4.358,2.337,0,0h0c-.471.27-25.267,14.527-43.121,19.665.81-.341,23.518-9.993,25.2-24.557,1.716-14.828-2.11-21.205-2.11-21.205s-2.393.32-5.9-3.826c0,0,10.682,1.277,17.856-4.783S275.3,103.08,275.3,103.08h0a16.954,16.954,0,0,1,3.955,4.646c4.462,7.862-.638,14.878-.638,14.878s-11.9,9.461-13.657,17.433,14.828,10.045,20.727,6.377,6.782-15.088,6.782-15.088a20.639,20.639,0,0,1,1.88,2.972C299.459,144.077,292.549,147.691,292.549,147.691Z" transform="translate(30.014 79.836)" opacity="0.8" fill="url(#linear-gradient-7)" style="mix-blend-mode: multiply;isolation: isolate"/>
      <path id="Path_531" data-name="Path 531" d="M285.536,156.234s-16.081,11.368-29.781,16.556l.008-.006c14.467-10.173,19.777-35.281,17.971-42.5v0C285.322,139.386,285.536,156.234,285.536,156.234Z" transform="translate(48.824 105.095)" opacity="0.8" fill="url(#linear-gradient-8)" style="mix-blend-mode: multiply;isolation: isolate"/>
      <path id="Path_532" data-name="Path 532" d="M329.926,117.919c2.6,11.8,1.063,17.059,1.063,17.059,0-13.233-11.638-24.553-19.094-24.758a26.462,26.462,0,0,1,12.292-.825Z" transform="translate(100.949 85.373)" opacity="0.8" fill="url(#linear-gradient-9)" style="mix-blend-mode: multiply;isolation: isolate"/>
      <path id="Path_533" data-name="Path 533" d="M339.632,137.988a5.522,5.522,0,0,1-3.248,2.036c2.976-16.191-13.877-26.187-13.877-26.187,2.137-1.495,5.456-3.147,9.047-2.422C332.886,111.684,343.458,132.675,339.632,137.988Z" transform="translate(110.802 87.412)" opacity="0.8" fill="url(#linear-gradient-9)" style="mix-blend-mode: multiply;isolation: isolate"/>
      <path id="Path_534" data-name="Path 534" d="M342.289,163.015a7.609,7.609,0,0,1-.827.528c.287-13.765-18.943-29.442-33.494-28.846a31.171,31.171,0,0,1,6.046-4.783,7.756,7.756,0,0,1-.922-.21s3.6,2.721,10.913,2.058c7.045-.636,9.253-7.864,9.253-7.864l2.654,2.337,0,0,.013.027.019.035C336.729,127.832,351.185,156.395,342.289,163.015Z" transform="translate(97.303 99.165)" opacity="0.8" fill="url(#linear-gradient-9)" style="mix-blend-mode: multiply;isolation: isolate"/>
      <path id="Path_535" data-name="Path 535" d="M232.83,126.778c0,29.008,36.9,18.274,62.727-14.89s72.05-61.005,123.131-25.658c0,0-42.978-60.245-114.407-38.6C240.052,67.1,232.832,118.328,232.83,126.778Z" transform="translate(27.539 23.996)" opacity="0.6" fill="url(#linear-gradient-12)" style="mix-blend-mode: screen;isolation: isolate"/>
      <g id="Group_289" data-name="Group 289" transform="translate(258.605 77.754)">
        <path id="Path_536" data-name="Path 536" d="M305.324,74.728c-5.864,2.918,4.137,2.549,4.615,1.275S307.245,73.769,305.324,74.728Z" transform="translate(-165.463 -24.603)" fill="#0edbff"/>
        <path id="Path_537" data-name="Path 537" d="M309.6,70.2c-1.483.987.01,4.623,1.678,2.071S311.518,68.922,309.6,70.2Z" transform="translate(-160.347 -29.003)" fill="#0edbff"/>
        <path id="Path_538" data-name="Path 538" d="M298.156,51.549c.447,2.025,2.231,3.35,3.188,1.595S297.9,50.38,298.156,51.549Z" transform="translate(-170.422 -46.229)" fill="#0edbff"/>
        <path id="Path_539" data-name="Path 539" d="M267.05,49.708c-.951,3.541,3.967,2.65,4.127,1.055S267.547,47.855,267.05,49.708Z" transform="translate(-199.407 -48.312)" fill="#0edbff"/>
        <path id="Path_540" data-name="Path 540" d="M270.131,53.191c.422.81.957,2.731,1.435,0S269.9,52.749,270.131,53.191Z" transform="translate(-196.448 -45.461)" fill="#0edbff"/>
        <path id="Path_541" data-name="Path 541" d="M273.782,51.637c1.448,4.707,7.494,1.4,6.7-1.693S273.144,49.564,273.782,51.637Z" transform="translate(-193.083 -48.548)" fill="#0edbff"/>
        <path id="Path_542" data-name="Path 542" d="M329.066,75.993c-2.7,1.874,1.913,3.67,1.913,1.755S331.14,74.554,329.066,75.993Z" transform="translate(-142.5 -23.64)" fill="#0edbff"/>
        <path id="Path_543" data-name="Path 543" d="M234.692,81.932c-.644,2.144,3.03.16,2.87-.8S235.648,78.745,234.692,81.932Z" transform="translate(-229.407 -19.373)" fill="#0edbff"/>
        <path id="Path_544" data-name="Path 544" d="M232.415,97.39c-2.085,3.753,3.03,7.174,3.03,3.348S234.009,94.52,232.415,97.39Z" transform="translate(-231.915 -4.376)" fill="#0edbff"/>
        <path id="Path_545" data-name="Path 545" d="M245.47,82.471c-1.009,2.017,3.826,2.563,4.144.644S246.266,80.878,245.47,82.471Z" transform="translate(-219.458 -17.999)" fill="#0edbff"/>
        <path id="Path_546" data-name="Path 546" d="M253.261,59.381c-.195,1.261,3.03,1.913,3.508,0S253.9,55.236,253.261,59.381Z" transform="translate(-212.104 -40.667)" fill="#0edbff"/>
        <path id="Path_547" data-name="Path 547" d="M267.083,102.8c-1.234.895,1.441,4.52,2.127,1.46S269.053,101.372,267.083,102.8Z" transform="translate(-199.561 0.904)" fill="#0edbff"/>
        <path id="Path_548" data-name="Path 548" d="M262.709,107.737c.839,3.986,5.741.957,5.1-1.277S262.07,104.707,262.709,107.737Z" transform="translate(-203.375 3.931)" fill="#0edbff"/>
        <path id="Path_549" data-name="Path 549" d="M271.092,105.584c-2.978.4.4,4.532,1.022,2.825S274.706,105.106,271.092,105.584Z" transform="translate(-196.664 4.328)" fill="#0edbff"/>
        <path id="Path_550" data-name="Path 550" d="M281.717,142.646c1.95,5.465,5.421,7.334,6.059,3.348S281.079,140.859,281.717,142.646Z" transform="translate(-185.712 38.059)" fill="#0edbff"/>
        <path id="Path_551" data-name="Path 551" d="M278.955,139.007c-.951,2.854,3.188,3.953,3.986,1.817S279.433,137.573,278.955,139.007Z" transform="translate(-188.371 34.842)" fill="#0edbff"/>
        <path id="Path_552" data-name="Path 552" d="M287.522,139.733c-.648,3.184,3.03,2.33,3.03.671S287.842,138.167,287.522,139.733Z" transform="translate(-180.357 35.262)" fill="#0edbff"/>
        <path id="Path_553" data-name="Path 553" d="M298.255,129.081c.478,2.87,2.391,6.613,2.711,3.386S297.776,126.21,298.255,129.081Z" transform="translate(-170.362 25.157)" fill="#0edbff"/>
        <path id="Path_554" data-name="Path 554" d="M330.58,106.34c-2.222,1.273-.108,4.557,1.645,2.438S334.2,104.267,330.58,106.34Z" transform="translate(-141.195 4.371)" fill="#0edbff"/>
        <path id="Path_555" data-name="Path 555" d="M326.658,108.174c-2.4,1.523,2.551,3.03,2.551,1.435S328.413,107.057,326.658,108.174Z" transform="translate(-144.556 6.363)" fill="#0edbff"/>
        <path id="Path_556" data-name="Path 556" d="M330.4,109.816c-2.3,1.541,2.983,3.286,2.873,2.042S333.14,107.98,330.4,109.816Z" transform="translate(-141.014 7.751)" fill="#0edbff"/>
        <path id="Path_557" data-name="Path 557" d="M318.858,107.416c-.766,2.569,4.3,1.117,4.3.694S319.176,106.346,318.858,107.416Z" transform="translate(-151.264 5.733)" fill="#0edbff"/>
        <path id="Path_558" data-name="Path 558" d="M324.694,102c-2.3,1.971,1.72,3.843,3.172,2.081S329.158,98.174,324.694,102Z" transform="translate(-146.418 -0.378)" fill="#0edbff"/>
        <path id="Path_559" data-name="Path 559" d="M329.164,87.184c-1.495,8.915.8,11.1,3.244,6.31S329.584,84.67,329.164,87.184Z" transform="translate(-142.063 -13.392)" fill="#0edbff"/>
        <path id="Path_560" data-name="Path 560" d="M309,61.886c-.152,3.317,3.8,6.377,3.8,2.87S309.188,57.74,309,61.886Z" transform="translate(-160.348 -37.91)" fill="#0edbff"/>
        <path id="Path_561" data-name="Path 561" d="M280.49,56.723c-5.5,7.018,4.488,6.2,6.241,1.417S283.975,52.28,280.49,56.723Z" transform="translate(-188.334 -43.571)" fill="#0edbff"/>
      </g>
      <path id="Path_562" data-name="Path 562" d="M317.367,76.048c-.492,2.563-6.414-.033-11.607-4.133l-.017-.01c-7.072-5.591-12.78-13.962-1.568-15.885,3.313-.567,6.144,1.209,8.335,3.98C316.222,64.7,318.094,72.237,317.367,76.048Z" transform="translate(87.903 36.045)" fill="#0edbff"/>
      <path id="Path_563" data-name="Path 563" d="M292.471,84.208c-6.208-3.689-9.677-9.779-4.779-18.143,4.626-7.9,12.844-6.809,19.883-2.146,6.545,4.333,12.068,11.758,12.726,17.906C321.159,89.824,302.927,90.419,292.471,84.208Z" transform="translate(76.325 40.091)" fill="#0edbff"/>
      <path id="Path_564" data-name="Path 564" d="M292.475,84.206l0,0c-6.208-3.689-9.677-9.779-4.779-18.143,4.626-7.9,12.844-6.809,19.883-2.146C292.484,58.81,283.97,72.215,292.475,84.206Z" transform="translate(76.325 40.091)" opacity="0.4" fill="url(#linear-gradient-13)" style="mix-blend-mode: multiply;isolation: isolate"/>
      <path id="Path_565" data-name="Path 565" d="M312.51,60l-.006,0c-5.151-2.158-10.986-.957-6.744,11.918l-.017-.01c-7.072-5.591-12.78-13.962-1.568-15.885C307.488,55.454,310.319,57.23,312.51,60Z" transform="translate(87.903 36.045)" opacity="0.4" fill="url(#linear-gradient-14)" style="mix-blend-mode: multiply;isolation: isolate"/>
      <path id="Path_566" data-name="Path 566" d="M269.647,107.69c-3.928,8.935-16.006,14.674-22.085,14.2,0,0,5.772,1.805,19.857-3.562a12.031,12.031,0,0,0,2.227-5.535A30.008,30.008,0,0,0,269.647,107.69Z" transform="translate(41.217 84.117)" opacity="0.8" fill="url(#linear-gradient-15)" style="mix-blend-mode: multiply;isolation: isolate"/>
      <path id="Path_567" data-name="Path 567" d="M257.93,125.427c5.9,3.907,15.624,4.7,15.624,4.7l-15.624,8.427-12.28,6s9.251-6.133,11.164-10.994S257.93,125.427,257.93,125.427Z" transform="translate(39.441 100.585)" opacity="0.8" fill="url(#linear-gradient-16)" style="mix-blend-mode: multiply;isolation: isolate"/>
      <g id="Group_290" data-name="Group 290" transform="translate(246.545 34.399)" opacity="0.6" style="mix-blend-mode: overlay;isolation: isolate">
        <path id="Path_568" data-name="Path 568" d="M226.449,142.306c3.643,4.2,16.3-6.455,11.272-9.006S222.807,138.105,226.449,142.306Z" transform="translate(-225.661 73.008)" fill="#fff19d"/>
        <path id="Path_569" data-name="Path 569" d="M237.633,135c-5.178,11.926,7.016,7.668,10.63-3.386S241.885,125.2,237.633,135Z" transform="translate(-215.718 65.98)" fill="#fff19d"/>
        <path id="Path_570" data-name="Path 570" d="M249.533,106.951c-3.429,7.292,5.315,1.585,5.951-1.038S252.509,100.618,249.533,106.951Z" transform="translate(-204.234 45.406)" fill="#fff19d"/>
        <path id="Path_571" data-name="Path 571" d="M256.648,143.765c-7.031,12.855,8.1,7.421,9.585,0S260.032,137.58,256.648,143.765Z" transform="translate(-198.613 78.466)" fill="#fff19d"/>
        <path id="Path_572" data-name="Path 572" d="M312.454,136.673c4.169,12.408,15.943,15.266,11.054,7.29S310.541,130.98,312.454,136.673Z" transform="translate(-145.343 74.359)" fill="#fff19d"/>
        <path id="Path_573" data-name="Path 573" d="M310.584,117.7c1.063,11.328,9.118,11.393,7.417,4.829S309.969,111.146,310.584,117.7Z" transform="translate(-146.852 56.115)" fill="#fff19d"/>
        <path id="Path_574" data-name="Path 574" d="M326.561,124.81c2.256,5.546,8.366,3.192,4.27-2.337S323.62,117.582,326.561,124.81Z" transform="translate(-133.053 60.026)" fill="#fff19d"/>
        <path id="Path_575" data-name="Path 575" d="M318.913,138.167c2.391,6.57,7.029,8.487,6.271,3.469S317.133,133.277,318.913,138.167Z" transform="translate(-139.339 75.794)" fill="#fff19d"/>
        <path id="Path_576" data-name="Path 576" d="M319.281,131.76c1.144,9.561,12.107,10.047,9.135,3.33S318.643,126.43,319.281,131.76Z" transform="translate(-138.777 69.219)" fill="#fff19d"/>
        <path id="Path_577" data-name="Path 577" d="M298.066,34.859c-6.692,9.847,2.245,16.581,4.1,11.054S302.11,28.906,298.066,34.859Z" transform="translate(-160.711 -19.453)" fill="#fff19d"/>
        <path id="Path_578" data-name="Path 578" d="M299.186,28.08c-2.1,5.884,5.556,7.014,5.085,3.4S300.854,23.4,299.186,28.08Z" transform="translate(-157.735 -26.067)" fill="#fff19d"/>
      </g>
      <circle id="Ellipse_5814" data-name="Ellipse 5814" cx="50.275" cy="50.275" r="50.275" transform="translate(203.169 206.356) rotate(-45)" fill="url(#radial-gradient-6)" style="mix-blend-mode: screen;isolation: isolate"/>
      <ellipse id="Ellipse_5815" data-name="Ellipse 5815" cx="31.437" cy="30.589" rx="31.437" ry="30.589" transform="translate(396.874 220.929)" fill="url(#radial-gradient-7)" style="mix-blend-mode: screen;isolation: isolate"/>
      <circle id="Ellipse_5816" data-name="Ellipse 5816" cx="21.952" cy="21.952" r="21.952" transform="translate(350.404 48.138) rotate(-45)" fill="url(#radial-gradient-6)" style="mix-blend-mode: screen;isolation: isolate"/>
      <path id="Path_579" data-name="Path 579" d="M240.83,76.26c-6.555,9.384,8.113,9.018,15.447,0S248.339,65.509,240.83,76.26Z" transform="translate(33.44 48.039)" fill="#fff"/>
      <path id="Path_580" data-name="Path 580" d="M245.069,75.518c-1.936,7.517,8.67,5.429,30.589-5.423s22.355-19.464,8.744-17.869S247.759,65.075,245.069,75.518Z" transform="translate(38.694 32.443)" fill="#fff"/>
      <ellipse id="Ellipse_5817" data-name="Ellipse 5817" cx="78.122" cy="46.874" rx="78.122" ry="46.874" transform="translate(214.341 130.055) rotate(-45)" opacity="0.5" fill="url(#radial-gradient-9)" style="mix-blend-mode: color-dodge;isolation: isolate"/>
      <circle id="Ellipse_5818" data-name="Ellipse 5818" cx="18.496" cy="18.496" r="18.496" transform="translate(373.322 114.093) rotate(-76.662)" fill="url(#radial-gradient-10)" style="mix-blend-mode: screen;isolation: isolate"/>
      <circle id="Ellipse_5819" data-name="Ellipse 5819" cx="6.564" cy="6.564" r="6.564" transform="translate(430.13 173.418)" fill="url(#radial-gradient-10)" style="mix-blend-mode: screen;isolation: isolate"/>
      <circle id="Ellipse_5820" data-name="Ellipse 5820" cx="6.564" cy="6.564" r="6.564" transform="translate(439.138 124.636)" fill="url(#radial-gradient-10)" style="mix-blend-mode: screen;isolation: isolate"/>
      <path id="Path_581" data-name="Path 581" d="M276.837,110.607a9.019,9.019,0,1,1-9.018-9.018A9.019,9.019,0,0,1,276.837,110.607Z" transform="translate(51.652 78.452)" fill="url(#radial-gradient-10)" style="mix-blend-mode: screen;isolation: isolate"/>
      <path id="Path_582" data-name="Path 582" d="M296.629,147.8a9.019,9.019,0,1,1-9.018-9.018A9.019,9.019,0,0,1,296.629,147.8Z" transform="translate(70.028 112.988)" fill="url(#radial-gradient-10)" style="mix-blend-mode: screen;isolation: isolate"/>
    </g>
    <g id="Group_288" data-name="Group 288" transform="matrix(0.891, -0.454, 0.454, 0.891, -209.033, 157.874)">
      <path id="Path_476" data-name="Path 476" d="M238.791,239.06s1.124-15.916,11.951-24.481c10.559-8.354,27.73-8.122,36.665,5.685a28.09,28.09,0,0,1,2.437,26.686Z" transform="translate(-15.098 -11.491)" fill-rule="evenodd" fill="url(#radial-gradient-15)"/>
      <path id="Path_477" data-name="Path 477" d="M289.843,253.66l-33.349-5.154-17.7-2.736a42.3,42.3,0,0,1,6.292-18.263,24.481,24.481,0,0,0,1.426,2.915c6.411,11.165,20.313,15.1,28.482,15.7,9.515.7,13.491-3.249,16.143-10.907h0A27.792,27.792,0,0,1,289.843,253.66Z" transform="translate(-15.098 -18.201)" fill-rule="evenodd" fill="url(#linear-gradient-17)" style="mix-blend-mode: multiply;isolation: isolate"/>
      <path id="Path_478" data-name="Path 478" d="M256.494,241.977l-17.7-2.736a42.3,42.3,0,0,1,6.292-18.263,26.9,26.9,0,0,1,5.658-6.218,26.29,26.29,0,0,1,12.152-5.3c-10.536,4.546-15.2,9.36-16.384,14.431a14.091,14.091,0,0,0,.348,7.168C248.062,235.267,251.75,238.906,256.494,241.977Z" transform="translate(-15.098 -11.672)" fill-rule="evenodd" fill="url(#linear-gradient-18)" style="mix-blend-mode: multiply;isolation: isolate"/>
      <path id="Path_479" data-name="Path 479" d="M230.641,267.814l-32.332-8.548s21.609-4.874,59.947,2.282,42.465,15.2,42.465,15.2-19.144-.812-33.879-2.784Z" transform="translate(-0.451 -29.105)" fill-rule="evenodd" fill="url(#radial-gradient-16)"/>
      <g id="Group_287" data-name="Group 287" transform="translate(197.062 216.563)">
        <path id="Path_480" data-name="Path 480" d="M207.653,250.472c-4.35.37-3.558,3.945-3.558,3.945l8.509-2.073S211.288,250.162,207.653,250.472Z" transform="translate(-199.586 -243.062)" fill-rule="evenodd" fill="url(#linear-gradient-19)"/>
        <path id="Path_481" data-name="Path 481" d="M240.778,247.992c-4.01.188-4.35,3.548-4.35,3.548l9.224-.193S245.013,247.795,240.778,247.992Z" transform="translate(-211.306 -242.173)" fill-rule="evenodd" fill="url(#linear-gradient-20)"/>
        <path id="Path_482" data-name="Path 482" d="M306.695,256.61a7.514,7.514,0,0,0-5.455,1.044l9.458,1.994A6.1,6.1,0,0,0,306.695,256.61Z" transform="translate(-234.756 -245.256)" fill-rule="evenodd" fill="url(#linear-gradient-21)"/>
        <path id="Path_483" data-name="Path 483" d="M350.372,268.4c-4.5-.9-5.859,2.262-5.859,2.262l9.456,3.481S353.853,269.093,350.372,268.4Z" transform="translate(-250.413 -249.5)" fill-rule="evenodd" fill="url(#linear-gradient-22)"/>
        <circle id="Ellipse_5808" data-name="Ellipse 5808" cx="5.221" cy="5.221" r="5.221" transform="translate(0 8.647) rotate(-48.489)" fill="url(#radial-gradient-17)" style="mix-blend-mode: screen;isolation: isolate"/>
        <circle id="Ellipse_5809" data-name="Ellipse 5809" cx="5.221" cy="5.221" r="5.221" transform="matrix(0.731, -0.683, 0.683, 0.731, 21.978, 7.13)" fill="url(#radial-gradient-17)" style="mix-blend-mode: screen;isolation: isolate"/>
        <circle id="Ellipse_5810" data-name="Ellipse 5810" cx="5.221" cy="5.221" r="5.221" transform="translate(66.283 6.756)" fill="url(#radial-gradient-17)" style="mix-blend-mode: screen;isolation: isolate"/>
        <circle id="Ellipse_5811" data-name="Ellipse 5811" cx="5.221" cy="5.221" r="5.221" transform="translate(92.233 20.892) rotate(-50.528)" fill="url(#radial-gradient-17)" style="mix-blend-mode: screen;isolation: isolate"/>
        <path id="Path_484" data-name="Path 484" d="M202.551,254.393l.541,1.318L213.38,254.7a11.918,11.918,0,0,0-.431-2.4S205.722,252.613,202.551,254.393Z" transform="translate(-199.048 -243.734)" fill-rule="evenodd" fill="url(#radial-gradient-21)"/>
        <path id="Path_485" data-name="Path 485" d="M234.882,253.575v-1.468a27.68,27.68,0,0,1,10.675-.812l.522,2.553Z" transform="translate(-210.746 -243.304)" fill-rule="evenodd" fill="url(#radial-gradient-22)"/>
        <path id="Path_486" data-name="Path 486" d="M300.153,257.646l-.638,1.765,12.241,3.066-.348-2.416A38.091,38.091,0,0,0,300.153,257.646Z" transform="translate(-234.132 -245.669)" fill-rule="evenodd" fill="url(#radial-gradient-23)"/>
        <path id="Path_487" data-name="Path 487" d="M342.886,270.124l-.464,1.588,11.08,4.736a6.994,6.994,0,0,0,.638-2.553A74.211,74.211,0,0,0,342.886,270.124Z" transform="translate(-249.656 -250.184)" fill-rule="evenodd" fill="url(#radial-gradient-24)"/>
      </g>
      <path id="Path_488" data-name="Path 488" d="M198.309,256.037v1.7a174.382,174.382,0,0,1,62.731,3.906c33.532,8.47,39.681,13.575,39.681,13.575l3.365-4.525s-22.973-12.531-55.577-16.011S198.309,256.037,198.309,256.037Z" transform="translate(-0.451 -27.578)" fill-rule="evenodd" fill="url(#radial-gradient-25)"/>
      <path id="Path_489" data-name="Path 489" d="M298.512,227.011c-1.024,3.861,3.017,4.92,3.481,3.876S299.325,223.947,298.512,227.011Z" transform="translate(-36.647 -17.705)" fill="#fff" fill-rule="evenodd"/>
      <path id="Path_490" data-name="Path 490" d="M221.883,305.545l18.008-31.482L273.8,279.9l1.486,36.084Z" transform="translate(-8.981 -35.046)" fill-rule="evenodd" opacity="0.45" fill="url(#linear-gradient-23)" style="mix-blend-mode: screen;isolation: isolate"/>
      <path id="Path_491" data-name="Path 491" d="M248.218,272.86a47.833,47.833,0,0,1-6.265-3.133c-1.74-1.044,8.3-1.218,24.095,1.588,8.489,1.508,20.846,4.562,20.343,6.187-.19.612-4.641.986-7.774.7S248.218,272.86,248.218,272.86Z" transform="translate(-16.172 -33.223)" fill-rule="evenodd" fill="url(#radial-gradient-26)"/>
      <path id="Path_492" data-name="Path 492" d="M250.084,273.983c.731-.465,7.395.228,16.762,1.74s17.253,3.463,17.15,4.1-8.092-.343-17.459-1.855S249.541,274.328,250.084,273.983Z" transform="translate(-19.174 -34.965)" fill-rule="evenodd" fill="url(#linear-gradient-24)"/>
      <path id="Path_493" data-name="Path 493" d="M247.4,258.8s4.142,4.418,7.04,6.926a17.151,17.151,0,0,1,.225,3.211,10.429,10.429,0,0,0-.707-3.255A59.494,59.494,0,0,1,247.4,258.8Z" transform="translate(-18.213 -29.522)" fill-rule="evenodd" fill="url(#linear-gradient-25)" style="mix-blend-mode: multiply;isolation: isolate"/>
      <path id="Path_494" data-name="Path 494" d="M215.751,258.613s10.933,3.833,18.823,6.668a25.036,25.036,0,0,1,3.713,3.05,51.1,51.1,0,0,0-4.138-3.048A174.018,174.018,0,0,1,215.751,258.613Z" transform="translate(-6.762 -29.456)" fill-rule="evenodd" fill="url(#linear-gradient-26)" style="mix-blend-mode: multiply;isolation: isolate"/>
      <path id="Path_495" data-name="Path 495" d="M275.482,261.964a20.193,20.193,0,0,0,.175,6.375,19.831,19.831,0,0,1-.551,2.959,6.12,6.12,0,0,0,.791-2.919A34.525,34.525,0,0,1,275.482,261.964Z" transform="translate(-28.238 -30.668)" fill-rule="evenodd" fill="url(#linear-gradient-27)" style="mix-blend-mode: multiply;isolation: isolate"/>
      <path id="Path_496" data-name="Path 496" d="M292.941,276.217a6.948,6.948,0,0,1,.7-2.791,71.753,71.753,0,0,1,9.737-3.8,41.056,41.056,0,0,0-5.953,1.65,13.342,13.342,0,0,0-4,2.1A6.105,6.105,0,0,0,292.941,276.217Z" transform="translate(-34.689 -33.442)" fill-rule="evenodd" fill="url(#linear-gradient-28)" style="mix-blend-mode: multiply;isolation: isolate"/>
      <path id="Path_497" data-name="Path 497" d="M301.656,281.395a7.7,7.7,0,0,1,4.3-1.576s14.517-.174,24.19,1.053c0,0-16.1-.269-23.733-.855C306.41,280.017,304.724,279.84,301.656,281.395Z" transform="translate(-37.844 -37.125)" fill-rule="evenodd" fill="url(#linear-gradient-29)" style="mix-blend-mode: multiply;isolation: isolate"/>
      <path id="Path_498" data-name="Path 498" d="M268.608,254.6s33.881,2.678,58.825,15.461A373.879,373.879,0,0,0,268.608,254.6Z" transform="translate(-25.887 -28.004)" fill-rule="evenodd" fill="url(#radial-gradient-27)" style="mix-blend-mode: screen;isolation: isolate"/>
      <path id="Path_499" data-name="Path 499" d="M324.466,271.032l1.8-5.205,6.916,2.2-1.225,5.414Z" transform="translate(-46.097 -32.066)" fill-rule="evenodd" fill="url(#radial-gradient-28)" style="mix-blend-mode: screen;isolation: isolate"/>
      <path id="Path_500" data-name="Path 500" d="M234.445,265.566s-7.628-2.389-14.561-5.154c0,0,2.871,1.3,7.483,3.066A34.859,34.859,0,0,0,234.445,265.566Z" transform="translate(-8.257 -30.106)" fill-rule="evenodd" opacity="0.44" fill="url(#linear-gradient-30)" style="mix-blend-mode: screen;isolation: isolate"/>
      <path id="Path_501" data-name="Path 501" d="M254.174,266.015s-4.091-4.068-5.568-5.751a28.273,28.273,0,0,0,2.869,3.537A16.562,16.562,0,0,0,254.174,266.015Z" transform="translate(-18.649 -30.053)" fill-rule="evenodd" opacity="0.44" fill="url(#linear-gradient-31)" style="mix-blend-mode: screen;isolation: isolate"/>
      <path id="Path_502" data-name="Path 502" d="M275.6,263.534a28.365,28.365,0,0,1,.424,5.045A50.164,50.164,0,0,1,275.6,263.534Z" transform="translate(-28.415 -31.236)" fill-rule="evenodd" opacity="0.44" fill="url(#linear-gradient-32)" style="mix-blend-mode: screen;isolation: isolate"/>
      <path id="Path_503" data-name="Path 503" d="M294.847,273.425s4.649-2.116,7.831-3.126A51.978,51.978,0,0,1,294.847,273.425Z" transform="translate(-35.38 -33.684)" fill-rule="evenodd" opacity="0.44" fill="url(#linear-gradient-33)" style="mix-blend-mode: screen;isolation: isolate"/>
      <path id="Path_504" data-name="Path 504" d="M330.18,281.022s-4.319-.13-17.576-.654c0,0,5.541.569,9.573.743S330.18,281.022,330.18,281.022Z" transform="translate(-41.805 -37.327)" fill-rule="evenodd" opacity="0.44" fill="url(#linear-gradient-34)" style="mix-blend-mode: screen;isolation: isolate"/>
      <path id="Path_505" data-name="Path 505" d="M300.578,217.991c5.377,6.578,6.857,14.265,3.3,17.169s-10.79-.077-16.168-6.655-6.857-14.266-3.305-17.169S295.2,211.412,300.578,217.991Z" transform="translate(-30.904 -11.947)" fill-rule="evenodd" fill="url(#radial-gradient-29)" style="mix-blend-mode: screen;isolation: isolate"/>
      <circle id="Ellipse_5813" data-name="Ellipse 5813" cx="26.818" cy="26.818" r="26.818" transform="matrix(0.226, -0.974, 0.974, 0.226, 234.299, 229.456)" opacity="0.52" fill="url(#radial-gradient-30)" style="mix-blend-mode: color-dodge;isolation: isolate"/>
      <path id="Path_506" data-name="Path 506" d="M225.545,263.964c-.086.438-2.551.323-5.507-.256s-5.282-1.4-5.2-1.841,2.551-.323,5.507.256S225.63,263.527,225.545,263.964Z" transform="translate(-6.432 -30.537)" fill="#1c1042" fill-rule="evenodd"/>
      <path id="Path_507" data-name="Path 507" d="M215.673,261.611s-4.241,5.7-2.125,7.947c1.856,1.972,7.271-2.274,10.619-6.135A30.165,30.165,0,0,0,215.673,261.611Z" transform="translate(-5.751 -30.54)" fill-rule="evenodd" fill="url(#radial-gradient-31)"/>
      <path id="Path_508" data-name="Path 508" d="M224.2,263.422c-.627.724-1.327,1.461-2.063,2.167-.675-2.715-7.843-1.237-9.081,1.53a16.1,16.1,0,0,1,2.65-5.509A30.179,30.179,0,0,1,224.2,263.422Z" transform="translate(-5.788 -30.54)" fill-rule="evenodd" opacity="0.73" fill="url(#linear-gradient-35)" style="mix-blend-mode: multiply;isolation: isolate"/>
      <path id="Path_509" data-name="Path 509" d="M262.347,265.274c-.724,1.058,10.615,3.251,10.79,2.355C273.369,266.441,262.734,264.708,262.347,265.274Z" transform="translate(-23.609 -31.826)" fill="#1c1042" fill-rule="evenodd"/>
      <path id="Path_510" data-name="Path 510" d="M264.693,274.354c1.731.75,5.808-2.8,7.932-7.356a33.226,33.226,0,0,0-8.359-1.752S261.213,272.845,264.693,274.354Z" transform="translate(-23.867 -31.855)" fill-rule="evenodd" fill="url(#radial-gradient-32)"/>
      <path id="Path_511" data-name="Path 511" d="M272.687,267c-.143.306-.295.609-.455.9-1.219-.779-6.028-1.288-9.035,1.6a20.591,20.591,0,0,1,1.132-4.256A33.24,33.24,0,0,1,272.687,267Z" transform="translate(-23.929 -31.855)" fill-rule="evenodd" opacity="0.73" fill="url(#linear-gradient-36)" style="mix-blend-mode: multiply;isolation: isolate"/>
      <path id="Path_512" data-name="Path 512" d="M313.394,276.4c-.867.9,9.718,3.539,10.587,2.7S314.178,275.589,313.394,276.4Z" transform="translate(-42.073 -35.837)" fill="#1c1042" fill-rule="evenodd"/>
      <path id="Path_513" data-name="Path 513" d="M321.046,287.133c2.855.285,3.117-8.708,3.117-8.708a33.691,33.691,0,0,0-8.284-2.1S317.28,286.755,321.046,287.133Z" transform="translate(-42.99 -35.864)" fill-rule="evenodd" fill="url(#radial-gradient-33)"/>
      <path id="Path_514" data-name="Path 514" d="M324.165,278.425s-.015.511-.077,1.283c-4.271-1.05-5.827.812-6.422,3.618a33.779,33.779,0,0,1-1.785-7A33.683,33.683,0,0,1,324.165,278.425Z" transform="translate(-42.991 -35.864)" fill-rule="evenodd" opacity="0.73" fill="url(#linear-gradient-37)" style="mix-blend-mode: multiply;isolation: isolate"/>
    </g>
  </g>
</svg>
