<svg xmlns="http://www.w3.org/2000/svg" width="38.873" height="28.275" viewBox="0 0 38.873 28.275">
  <g id="Group_349" data-name="Group 349" transform="translate(-275.127 -699.82)">
    <path id="noun-account-5888497" d="M114.274,100a14.162,14.162,0,1,0,9.991,4.148A14.138,14.138,0,0,0,114.274,100ZM108,123.541a8.252,8.252,0,0,1-.792-.594v-.325a7.069,7.069,0,0,1,7.069-7.069,4.242,4.242,0,1,1,3-1.242,4.242,4.242,0,0,1-3,1.242,7.048,7.048,0,0,1,7.069,7.069v.325a8.25,8.25,0,0,1-.792.594,11.436,11.436,0,0,1-12.555,0Z" transform="translate(174.988 599.82)" fill="#f5f5f5"/>
    <circle id="Ellipse_5840" data-name="Ellipse 5840" cx="9.5" cy="9.5" r="9.5" transform="translate(295 704)" fill="#3e8898"/>
    <g id="noun-question-3765481" transform="translate(299.045 707.983)">
      <path id="Path_474" data-name="Path 474" d="M488.7,921.176a1.188,1.188,0,1,1,1.188-1.188A1.188,1.188,0,0,1,488.7,921.176Z" transform="translate(-484.342 -909.692)" fill="#f5f5f5" fill-rule="evenodd"/>
      <path id="Path_475" data-name="Path 475" d="M193.05,62.793v.594a1.188,1.188,0,1,1-2.376,0v-.594a2.376,2.376,0,0,1,2.376-2.376h.4a.4.4,0,0,0,.4-.4v-.99a.4.4,0,0,0-.4-.4h-3.168a.4.4,0,0,0-.4.4v.2a1.188,1.188,0,1,1-2.376,0v-.2a2.772,2.772,0,0,1,2.772-2.772h3.168a2.772,2.772,0,0,1,2.772,2.772v.99a2.772,2.772,0,0,1-2.772,2.772Z" transform="translate(-187.506 -56.259)" fill="#f5f5f5" fill-rule="evenodd"/>
    </g>
  </g>
</svg>
