<svg id="noun-question-3765481" xmlns="http://www.w3.org/2000/svg" width="21.097" height="27.811" viewBox="0 0 21.097 27.811">
  <path id="Path_474" data-name="Path 474" d="M490.387,924.554a2.877,2.877,0,1,1,2.877-2.877A2.877,2.877,0,0,1,490.387,924.554Z" transform="translate(-479.838 -896.743)" fill="#f5f5f5" fill-rule="evenodd"/>
  <path id="Path_475" data-name="Path 475" d="M200.931,72.082V73.52a2.877,2.877,0,1,1-5.754,0V72.082a5.754,5.754,0,0,1,5.754-5.754h.959a.959.959,0,0,0,.959-.959v-2.4a.959.959,0,0,0-.959-.959h-7.672a.959.959,0,0,0-.959.959v.479a2.877,2.877,0,1,1-5.754,0v-.479a6.713,6.713,0,0,1,6.713-6.713h7.672a6.713,6.713,0,0,1,6.713,6.713v2.4a6.713,6.713,0,0,1-6.713,6.713Z" transform="translate(-187.506 -56.259)" fill="#f5f5f5" fill-rule="evenodd"/>
</svg>
